<?xml version="1.0" standalone="no"?>
<!DOCTYPE svg PUBLIC "-//W3C//DTD SVG 1.1//EN" "http://www.w3.org/Graphics/SVG/1.1/DTD/svg11.dtd" >
<svg xmlns="http://www.w3.org/2000/svg" xmlns:xlink="http://www.w3.org/1999/xlink" version="1.1">
<metadata>
Created by FontForge 20190801 at Sun Aug 11 16:06:53 2013
 By www-data
Copyright (c) 2013 by Juliana Vidal. All rights reserved.
</metadata>
<defs>
<font id="wonderland2" horiz-adv-x="556" >
  <font-face 
    font-family="wonderland2"
    font-weight="400"
    font-stretch="normal"
    units-per-em="1000"
    panose-1="0 0 0 0 0 0 0 0 0 0"
    ascent="800"
    descent="-200"
    x-height="398"
    cap-height="646"
    bbox="-1 -247 942 842"
    underline-thickness="50"
    underline-position="-100"
    unicode-range="U+0020-2260"
  />
<missing-glyph horiz-adv-x="222" 
 />
    <glyph glyph-name=".notdef" horiz-adv-x="222" 
 />
    <glyph glyph-name=".null" horiz-adv-x="0" 
 />
    <glyph glyph-name="nonmarkingreturn" horiz-adv-x="333" 
 />
    <glyph glyph-name="space" unicode=" " horiz-adv-x="222" 
 />
    <glyph glyph-name="exclam" unicode="!" horiz-adv-x="204" 
d="M121 48q0 20 -14 34t-34 14t-34 -14t-14 -34t14.5 -34t33.5 -14q20 0 34 14t14 34zM61 158l-39 390q-2 18 -2 25q0 24 7 40.5t18 22.5t17.5 7.5t12.5 1.5q50 0 50 -89l-2 -28l-36 -370h-26z" />
    <glyph glyph-name="quotedbl" unicode="&#x22;" horiz-adv-x="149" 
d="M57 672l-8 -107h-25l-12 107h45zM123 672l-9 -107h-25l-12 107h46z" />
    <glyph glyph-name="numbersign" unicode="#" horiz-adv-x="485" 
d="M407 257h-82l-19 -91h101v-27h-106l-29 -139l-26 5l28 134h-139l-28 -139l-26 5l27 134h-81v27h87l18 91h-105v27h111l24 116l26 -5l-23 -111h138l24 116l26 -5l-23 -111h77v-27zM279 166l19 91h-139l-18 -91h138z" />
    <glyph glyph-name="dollar" unicode="$" horiz-adv-x="427" 
d="M266 341q108 -66 108 -170q0 -12 -1.5 -23t-2.5 -16l-2 -6q-30 -117 -151 -124v-37h-40v37l-19 3q-36 8 -65.5 30.5t-40.5 40.5l-12 19l-21 -104v178h14q16 -45 37.5 -77t43 -46.5t36 -20t27.5 -6.5v275l-10 5q-24 15 -45 31.5t-30 25.5l-9 10q-57 69 -57 131
q0 34 16 64.5t32 43.5l16 13q42 28 87 28v25h40v-30q31 -5 58 -19t39 -26l11 -11l21 60v-167h-13q0 32 -14.5 59.5t-28.5 39.5l-14 12q-28 27 -59 37v-255zM127 434q7 -8 50 -38v232q-17 -2 -32.5 -9.5t-22.5 -14.5l-7 -6q-30 -38 -30 -76q0 -24 10.5 -46t20.5 -32zM217 21
q32 5 53.5 21.5t30 39t11.5 37.5t3 28v6q-4 56 -98 117v-249z" />
    <glyph glyph-name="quotesingle" unicode="'" horiz-adv-x="85" 
d="M50 673l-8 -107h-25l-12 107h45z" />
    <glyph glyph-name="parenleft" unicode="(" horiz-adv-x="222" 
d="M139 3l-6 -7q-5 5 -13 14.5t-29 41t-37.5 66.5t-29.5 89.5t-13 111.5q0 25 1 38q0 7 1.5 20t8.5 49.5t19 70.5t36 76.5t56 73.5l6 -6q-9 -16 -21.5 -44t-33.5 -101.5t-21 -132.5q0 -250 76 -360z" />
    <glyph glyph-name="parenright" unicode=")" horiz-adv-x="222" 
d="M45 638l7 6q5 -5 13 -14t29 -40.5t37.5 -66t29.5 -89t13 -110.5q0 -7 -2 -25v-9q-1 -83 -32.5 -161.5t-87.5 -133.5l-7 7q9 16 21.5 43t33.5 99.5t21 131.5v5q0 247 -76 357z" />
    <glyph glyph-name="asterisk" unicode="*" horiz-adv-x="270" 
d="M225 230l-10 -17l-90 55v-103h-19v103l-88 -59l-11 16l90 60l-93 56l11 16l91 -55v109h19v-107l86 58l11 -16l-89 -60z" />
    <glyph glyph-name="plus" unicode="+" horiz-adv-x="360" 
d="M270 317v-20h-115v-115h-20v115h-116v20h116v116h20v-116h115z" />
    <glyph glyph-name="comma" unicode="," horiz-adv-x="200" 
d="M48 -74l-7 12q3 0 10.5 5.5t13.5 10.5l6 6q14 15 14 29l-4 14q-9 -3 -16 -3t-13.5 2.5t-9.5 5.5l-3 2q-10 5 -10 27q0 38 38 39h1l2 1q40 0 40 -56v-5q-2 -30 -17.5 -52.5t-30.5 -29.5z" />
    <glyph glyph-name="hyphen" unicode="-" horiz-adv-x="361" 
d="M271 268v-32h-251v32h251z" />
    <glyph glyph-name="period" unicode="." horiz-adv-x="110" 
d="M84 42q0 -16 -12 -28t-28 -12t-28 12t-12 28t12 28t28 12t28 -12t12 -28z" />
    <glyph glyph-name="slash" unicode="/" horiz-adv-x="386" 
d="M279 671l29 -11l-247 -664l-29 11z" />
    <glyph glyph-name="zero" unicode="0" horiz-adv-x="381" 
d="M180 646q75 0 128 -94.5t53 -228.5t-53 -229t-128 -95t-128 95t-53 229t53 228.5t128 94.5zM300 323q0 127 -36 217t-86 90q-51 0 -87 -90t-36 -217q0 -128 36 -218t87 -90q50 0 86 90.5t36 217.5z" />
    <glyph glyph-name="one" unicode="1" horiz-adv-x="294" 
d="M172 648v-580q0 -24 21.5 -38t42.5 -16l22 -1v-13h-244v13q23 1 39.5 6.5t24.5 12t13 14.5t6 12.5t1 8.5v497h-84v13q106 25 158 71z" />
    <glyph glyph-name="two" unicode="2" horiz-adv-x="529" 
d="M472 1h-469q15 5 79 61t120 110l56 53q159 140 159 245q0 22 -7 41.5t-17 31.5t-20 20.5t-17 12.5l-7 4q-51 28 -120 28q-20 0 -40.5 -2.5t-30.5 -5.5l-10 -2q-27 -7 -48.5 -19t-32 -25t-17.5 -25t-8 -19l-2 -8v-10q0 -66 54 -66l23 3q2 -7 13.5 -28t21.5 -39l11 -18h-11
q-42 0 -70.5 12t-41 32t-17 36.5t-4.5 34.5l1 19q5 39 23 69.5t44.5 47.5t52.5 28.5t55 16t42 5.5t23 1q8 1 22 1q51 0 91 -18.5t61 -44.5t34.5 -52.5t17.5 -45.5l4 -18q1 -5 1 -16q0 -49 -31 -105.5t-74.5 -102t-87.5 -84t-75 -60.5l-31 -21h217q22 0 34 19.5t13 38.5l2 19
h14v-155z" />
    <glyph glyph-name="three" unicode="3" horiz-adv-x="514" 
d="M114 467l-105 -2q0 5 1.5 13.5t10.5 32t23 44t44 44.5t70 39q54 15 115 15q126 0 161 -79q6 -15 6 -37q0 -92 -113 -155q6 -1 16.5 -4.5t36.5 -17.5t45.5 -32.5t36 -53t16.5 -75.5q0 -13 -1 -20t-4 -18.5t-16.5 -41t-32.5 -52t-56 -42t-83 -20.5q-17 -2 -41 -2
q-97 0 -156 40l-9 6t-20.5 17t-26 27.5t-20.5 36.5t-9 44q0 32 20 68l3 6t9.5 13.5t17 16.5t25 13t32.5 6q31 0 63 -16l14 -102q-53 37 -99 37q-23 0 -38 -12q-25 -20 -25 -51q0 -48 74 -91q55 -30 121 -30q84 0 138 63q42 53 42 113q0 57 -51 96q-10 15 -138 65v9
q6 1 16.5 3.5t36.5 13t46 24.5t36.5 41t16.5 60q0 22 -5 39q-1 3 -2.5 8.5t-9.5 19.5t-18 24.5t-28.5 19t-40.5 8.5q-24 0 -57 -12q-4 -2 -10 -5.5t-21 -16t-27 -28t-21.5 -40.5t-9.5 -53q0 -11 1 -17z" />
    <glyph glyph-name="four" unicode="4" horiz-adv-x="472" 
d="M495 324q-2 -3 -5.5 -8t-16.5 -18t-27.5 -23.5t-39.5 -20t-52 -11.5v-175q0 -24 21.5 -37.5t42.5 -14.5l21 -2v-13h-243v13q32 2 58 14.5t26 40.5v174h-280q28 13 98 114.5t126 196.5l56 94h74v-365h9q92 0 132 41zM72 293h208v318q-18 -32 -70 -111.5t-95 -143.5z" />
    <glyph glyph-name="five" unicode="5" horiz-adv-x="541" 
d="M486 643q-4 -4 -13 -10t-38.5 -22t-62.5 -28t-85.5 -22t-107.5 -10q-51 0 -108 9l-47 -135q95 33 205 33h6q15 0 33.5 -2t51 -8.5t61 -23t55.5 -40.5t43 -66t16 -95q0 -34 -5 -63q-1 -3 -2 -9t-8.5 -23t-17.5 -32.5t-30 -34t-45.5 -32t-64.5 -23t-86 -9.5h-14
q-21 0 -42.5 2.5t-55 13.5t-58.5 29t-43.5 53.5t-18.5 83.5v13q0 5 1.5 13t9.5 28t20.5 35.5t39 28t60.5 12.5q9 0 29 -2l-4 -120q-48 36 -87 36q-27 0 -38 -22q-8 -21 -8 -49q0 -107 143 -132q9 -1 23 -1q25 0 50 3.5t58 13.5t60.5 33t40.5 57q20 49 20 107q0 134 -131 180
q-59 16 -133 16q-89 0 -154 -30l30 244q123 -20 257 -20q118 0 195 20z" />
    <glyph glyph-name="six" unicode="6" horiz-adv-x="505" 
d="M247 437h9q57 0 99.5 -21t63 -48.5t32.5 -63.5t14 -54.5t2 -33.5v-3q-2 -55 -20 -96t-41.5 -62t-55 -33t-51.5 -15t-40 -3l-14 1h-6q-65 0 -112.5 31t-70 75t-35.5 88t-15 75l-1 31v21q0 62 13.5 114.5t33 83.5t39.5 53t33 31l14 8q56 39 111 39q37 0 71.5 -18
t57.5 -43.5t41 -51.5t26 -44l8 -18l-79 11q-43 145 -123 145q-22 0 -44 -11t-33 -21l-12 -11q-36 -40 -57 -108t-23 -116l-3 -48q6 28 25 50t43 34t46.5 19.5t38.5 9.5zM396 221q0 80 -44 140.5t-105 60.5t-104.5 -60.5t-43.5 -140.5t43.5 -140.5t104.5 -60.5t105 60.5
t44 140.5z" />
    <glyph glyph-name="seven" unicode="7" horiz-adv-x="517" 
d="M244 0l-93 1q6 32 54 133t93 186l45 85q21 39 46.5 82t40.5 67l16 23h-405l-40 -96v168h486v-72q-104 -127 -173.5 -280t-69.5 -297z" />
    <glyph glyph-name="eight" unicode="8" horiz-adv-x="468" 
d="M274 372q63 -29 111.5 -80t48.5 -117q0 -27 -8 -51q0 -3 -1 -4q-11 -34 -37 -59t-54.5 -36t-55.5 -17.5t-44 -7.5h-18h-10q-49 0 -87.5 13.5t-59 32.5t-33.5 38.5t-17 33.5l-4 13q-5 20 -5 36q0 33 16 63.5t38 50.5t44.5 35.5t38.5 22.5l16 7q-118 57 -118 157
q0 13 2.5 25.5t4.5 18.5l2 6q14 31 37.5 51.5t50.5 29t44.5 11t33.5 2.5h8q43 0 77.5 -11t52.5 -26t30 -30.5t16 -25.5l3 -11q4 -13 4 -29q0 -26 -13 -50.5t-31.5 -40.5t-37.5 -28t-32 -17zM218 13q44 2 74 16.5t44 36.5t19 41.5t5 41.5l-3 35q-11 35 -55 71t-82 55l-38 18
q-127 -56 -127 -165l5 -40q11 -36 33 -60.5t47.5 -34t41.5 -12.5t30 -3h6zM346 495q1 6 1 15q0 83 -90 118q-15 6 -37 6q-53 0 -90 -42q-21 -29 -21 -66q0 -50 50 -85q62 -44 86 -51q4 2 10 4.5t22.5 12.5t29.5 21.5t24.5 29.5t14.5 37z" />
    <glyph glyph-name="nine" unicode="9" horiz-adv-x="541" 
d="M470 353v-19q0 -62 -13.5 -115t-33 -84t-39.5 -53.5t-34 -31.5l-13 -8q-57 -39 -111 -39q-37 0 -72 18t-58 43.5t-41 51.5t-27 44l-8 18l79 -11q43 -145 124 -145q22 0 44 10.5t33 21.5l12 11q36 40 57 108t23 116l3 48q-5 -28 -24.5 -50t-43 -34t-46.5 -19.5t-39 -9.5
l-15 -3h-9q-58 0 -100.5 21t-63 48.5t-32.5 63.5t-14 55t-2 34v3q1 46 13.5 82.5t33 58t42 36.5t46.5 21.5t41.5 8.5t32.5 2l14 -1h6q47 0 85.5 -16.5t62.5 -43t41.5 -58.5t26 -64.5t13.5 -59t6 -42.5v-17zM376 438q0 80 -44 140.5t-105 60.5t-105 -60t-44 -141t43.5 -141.5
t105.5 -60.5q61 0 105 60.5t44 141.5z" />
    <glyph glyph-name="colon" unicode=":" horiz-adv-x="165" 
d="M118 40q0 -16 -12 -28t-28 -12t-28 12t-12 28t12 28t28 12t28 -12t12 -28zM118 189q0 -16 -11.5 -27.5t-28.5 -11.5t-28.5 11.5t-11.5 27.5q0 17 12 28.5t28 11.5t28 -11.5t12 -28.5z" />
    <glyph glyph-name="semicolon" unicode=";" horiz-adv-x="204" 
d="M137 118q0 -16 -11.5 -27.5t-27.5 -11.5q-17 0 -28.5 11.5t-11.5 27.5t12 28t28 12t27.5 -12t11.5 -28zM76 -147l-7 12q4 0 11.5 5.5t13.5 11.5l5 5q13 14 13 29l-4 14q-8 -3 -15 -3t-13.5 2.5t-9.5 4.5l-3 3q-12 7 -12 22q0 16 13 30.5t29 14.5q41 0 41 -56v-5
q-3 -30 -18.5 -52.5t-29.5 -30.5z" />
    <glyph glyph-name="less" unicode="&#x3c;" horiz-adv-x="326" 
d="M225 4l-204 205l204 205l16 -16l-188 -189l188 -189z" />
    <glyph glyph-name="equal" unicode="=" horiz-adv-x="374" 
d="M303 391v-20h-251v20h251zM308 263v-20h-251v20h251z" />
    <glyph glyph-name="greater" unicode="&#x3e;" horiz-adv-x="348" 
d="M273 206l-205 -205l-16 16l189 189l-189 189l16 16z" />
    <glyph glyph-name="question" unicode="?" horiz-adv-x="414" 
d="M223 44q0 20 -14.5 34t-33.5 14q-20 0 -34 -14t-14 -34t14 -34t34 -14t34 14t14 34zM117 377q-113 14 -113 102q0 20 5.5 41t10.5 32l6 12q41 75 151 75h13q45 -5 78 -23.5t49 -42t26 -46.5t11 -39l2 -15q1 -7 1 -21q0 -49 -20.5 -89t-40.5 -55l-20 -15
q-18 -13 -41.5 -21.5t-38.5 -11.5l-15 -2q4 -4 8.5 -40t6.5 -70l2 -34h-46q4 21 4 46q0 30 -5.5 59.5t-10.5 44.5l-6 15h11q34 0 59 12t38.5 29t21.5 40t10 39.5t2 33.5l-1 17q-2 43 -11 75.5t-20 48.5t-21.5 26t-18.5 12l-7 3q-21 8 -44 8q-39 0 -70.5 -24.5t-44.5 -48.5
l-12 -25q-5 -15 -5 -30q0 -50 65 -50l14 1z" />
    <glyph glyph-name="at" unicode="@" horiz-adv-x="833" 
d="M706 323q27 -60 27 -130q0 -36 -16 -93q-17 -60 -69 -98.5t-93 -38.5q-41 1 -83 30t-48 44q-7 -11 -24 -19t-30 -10l-13 -3q-17 -3 -31 -3q-25 0 -46 7t-33.5 16.5t-21.5 19.5t-13 17l-3 7q-13 29 -13 55q0 32 19 58t37 36l19 11q32 9 56 9q69 0 97 -56v123
q-3 44 -27.5 63.5t-57.5 19.5q-7 0 -19 -3t-16 -3q-7 -2 -21 -20q-24 -29 -24 -71v-6h-61q6 36 24.5 61.5t43.5 36t44.5 14.5t39.5 4l19 -1q33 -1 58 -16.5t37.5 -36.5t20 -41.5t9.5 -35.5l1 -14v-180q0 -43 21.5 -69t37.5 -28h6q10 0 18.5 3t14 6.5t11 10t8 10.5t7 11.5
t5.5 9.5q15 23 24 64q9 40 9 99q0 69 -24 128q-23 58 -62 100t-92 66t-112 24t-111 -24q-53 -24 -92 -69q-41 -45 -63 -109q-23 -62 -23 -145q0 -78 24 -142q22 -61 65 -107q41 -44 97 -68q57 -24 122 -24q44 0 83 12q37 10 65 26q31 16 60 38l11 -15q-29 -24 -63 -42
q-30 -16 -72 -30q-40 -13 -93 -13q-84 0 -153 27q-70 27 -119 75q-49 49 -76 116t-27 147q0 81 27 148q28 68 75 115q49 49 116 76q68 27 147 27t147 -27q66 -25 116 -72q50 -48 76 -108zM339 21q16 -2 23 -2q14 0 26 4t17.5 7.5t11.5 9.5t7 6v118q-21 50 -76 50l-20 -2
q-23 -7 -39 -27.5t-20 -38.5l-4 -17v-4q0 -39 18.5 -65t36.5 -32z" />
    <glyph glyph-name="A" unicode="A" horiz-adv-x="736" 
d="M724 14v-13h-237v13q3 0 8 0.5t17.5 3t22 6.5t17.5 12t8 18q0 8 -2 12l-92 178h-275l-52 -149q-2 -6 -2 -15q0 -15 6.5 -28t32.5 -25.5t70 -12.5v-13h-236v13q66 0 103 69l224 565l294 -556q2 -6 7.5 -15.5t29.5 -30t56 -32.5zM199 259h258l-144 286z" />
    <glyph glyph-name="B" unicode="B" horiz-adv-x="555" 
d="M314 392q7 -3 18.5 -8t41 -24.5t52 -42t41 -60t18.5 -78.5q0 -7 -1.5 -19.5t-13.5 -42t-32.5 -53t-64.5 -43t-103 -21.5h-256v13q22 1 38.5 6.5t24.5 11.5t12.5 14t5.5 12.5t1 8.5v509q0 27 -22 42.5t-44 18.5l-23 2v14h179h5q69 0 123 -20q4 -2 10.5 -5.5t23.5 -15
t30 -24.5t24.5 -33t12.5 -41q0 -4 -1.5 -11t-8 -26t-16 -34.5t-29.5 -30t-46 -19.5zM409 190q0 93 -71.5 142.5t-169.5 53.5v-375q6 -1 17 -1q107 0 168 60q6 5 14.5 14t24 40t17.5 66zM168 640v-241q8 -1 19 -1q17 0 33 1.5t39 8.5t39.5 18.5t28.5 33t12 50.5v6
q0 42 -28.5 71t-65 40t-77.5 13z" />
    <glyph glyph-name="C" unicode="C" horiz-adv-x="456" 
d="M389 545h-17q-1 87 -89 87q-13 0 -26.5 -2t-20.5 -4l-7 -2q-40 -16 -70 -52t-44.5 -76t-23 -77.5t-9.5 -62.5l-2 -24q-1 -11 -1 -33q0 -61 15.5 -111t37.5 -77.5t44 -47t38 -25.5l15 -7q27 -7 49 -7q29 0 48.5 11t28 29.5t12 34.5t3.5 33l-2 25l33 67q5 -26 5 -58
q0 -44 -14.5 -77t-33.5 -49t-45 -25.5t-40.5 -11.5t-28.5 -2h-6q-60 8 -105 35.5t-68 60t-37 74.5t-17.5 70t-3.5 55l1 23q3 62 19 115.5t37.5 85.5t42 55.5t35.5 32.5l14 9q66 35 120 35q29 0 52.5 -10t32.5 -20l9 -9l19 34v-102z" />
    <glyph glyph-name="D" unicode="D" horiz-adv-x="529" 
d="M480 322v-14q0 -81 -25 -141.5t-59 -91.5t-79.5 -49.5t-75.5 -22.5t-58 -4l-19 1h-149v17q29 0 45.5 12t19.5 21.5t3 18.5v3v502q0 24 -19.5 39t-39.5 18l-20 3v14h158q64 0 116 -18t84 -46.5t56 -63.5t35.5 -70t18 -63.5t7.5 -46.5zM364 129q32 95 32 207q0 140 -65 225
l-5 7.5t-17 17t-31.5 22t-49 17t-69.5 7.5v-617l24 -2h2q31 0 60 6.5t65 34.5t54 75z" />
    <glyph glyph-name="E" unicode="E" 
d="M5 653h491v-98h-13q-2 24 -10.5 41.5t-20 25.5t-22.5 12.5t-18 5.5h-8h-237v-307h219q24 1 38 18t16.5 30t2.5 26v4h16v-160h-15v5q0 28 -15 44t-29 18l-15 2h-218v-308h264q23 0 36 19t14.5 32.5t1.5 25.5h13v-88h-484v12q82 4 82 55v508q0 27 -22 43t-44 18l-23 2v14z
" />
    <glyph glyph-name="F" unicode="F" horiz-adv-x="542" 
d="M258 13v-12h-236v12q26 1 44 8t25 16.5t9.5 16t2.5 12.5q0 2 1 503q0 26 -22 41.5t-44 17.5l-22 3v13h484v-96h-13q-2 38 -21.5 59t-37.5 23l-18 2h-235v-303h217q24 1 37.5 17.5t16 29.5t2.5 26v4h15v-158h-14v5q0 28 -14.5 43.5t-29.5 17.5l-15 2h-215v-247
q0 -2 0.5 -6t4.5 -13.5t12 -17t25 -13.5t41 -6z" />
    <glyph glyph-name="G" unicode="G" horiz-adv-x="458" 
d="M242 1q-60 5 -104.5 30.5t-67.5 57.5t-36.5 74t-17 71t-3.5 57l1 27q3 62 19 115t37 84.5t41.5 54.5t34.5 32l15 9q65 36 120 36q28 0 51 -9.5t32 -19.5l9 -10l18 34v-102h-16q-1 87 -89 87q-13 0 -26 -2t-20 -4l-7 -2q-40 -16 -70 -51.5t-44 -75.5t-22.5 -77t-10.5 -61
l-1 -25q-1 -12 -1 -35q0 -60 15.5 -109.5t37.5 -77t43.5 -46t37.5 -25.5l15 -6q16 -5 38 -5q20 0 38 6t37 20.5t30.5 46t11.5 77.5v60h-110q-4 0 -10.5 -1t-17 -12.5t-10.5 -32.5l-16 -2v61h178v-2q1 -3 1.5 -7.5t1 -11t1 -16t0.5 -18.5q0 -26 -3 -49t-12 -51t-24.5 -48
t-43 -33.5t-64.5 -13.5q-2 0 -8 0.5t-9 0.5z" />
    <glyph glyph-name="H" unicode="H" horiz-adv-x="663" 
d="M631 635q-38 0 -59 -15.5t-23 -31.5l-2 -16v-505q0 -23 21 -36t42 -15l21 -1v-14h-238v13q77 5 82 54v261h-298v-263q0 -23 21 -35.5t42 -14.5l21 -1v-14h-239v13q82 5 82 54v504q0 27 -22 42.5t-44 17.5l-23 2v14h246v-13q-38 0 -59 -15.5t-23 -31.5l-2 -16v-230h298
v230q0 27 -22.5 42.5t-44.5 17.5l-22 2v14h245v-13z" />
    <glyph glyph-name="I" unicode="I" horiz-adv-x="278" 
d="M18 646h246v-13q-38 0 -59 -15.5t-23 -31.5l-2 -16v-505q0 -23 21 -36t42 -15l21 -1v-14h-239v13q82 4 82 54v504q0 27 -22.5 42.5t-44.5 17.5l-22 2v14z" />
    <glyph glyph-name="J" unicode="J" horiz-adv-x="458" 
d="M345 569v-393q0 -54 -15 -92t-40 -55t-47.5 -23.5t-47.5 -6.5l-38 4q-29 6 -53 18t-37.5 25t-23.5 25t-13 20l-4 8q-18 40 -18 82q0 22 5 43.5t9 31.5l5 10v-7q0 -20 12.5 -45.5t24.5 -41.5l13 -16q-10 -24 -10 -46q0 -34 23.5 -57t46.5 -29l23 -7q14 -2 19 -2
q30 0 50.5 18.5t29 46.5t11 47.5t2.5 35.5v5v401q0 27 -22.5 42.5t-45.5 17.5l-22 2v14h247v-13q-38 0 -59 -16t-23 -32z" />
    <glyph glyph-name="K" unicode="K" horiz-adv-x="615" 
d="M468 62q34 -46 104 -46v-15h-233l1 13q55 4 55 20l-3 7l-187 245l-34 -46v-173q0 -24 21 -37t42 -14l21 -2v-13h-238v12q82 5 82 55v503q0 26 -22.5 41.5t-44.5 17.5l-22 3v14h245v-14q-77 -2 -84 -62v-305l235 338q4 4 4 10q0 19 -61 19h-9v13h202v-13h-3
q-88 0 -123 -50l-165 -231z" />
    <glyph glyph-name="L" unicode="L" horiz-adv-x="541" 
d="M180 68v-53h253q23 0 41.5 17t25.5 34l8 18v-83h-482v12q82 4 82 55v503q0 27 -22 42.5t-44 17.5l-23 2v14h245v-13q-38 0 -59 -16t-23 -32l-2 -15v-503z" />
    <glyph glyph-name="M" unicode="M" horiz-adv-x="922" 
d="M186 1h-165v15q9 0 18 1.5t24 7.5t24.5 22t9.5 40v448v10q0 12 -2.5 24t-9.5 27t-23.5 24.5t-40.5 9.5v16h135l292 -549l300 549h127v-16h-7q-70 0 -70 -59v-487q0 -3 0.5 -7t4 -15.5t11 -20.5t23.5 -17t38 -9v-14h-228v16q3 0 8 0.5t18 4t22.5 9.5t17.5 19t8 30v490
l-307 -566l-299 555v-471v-7q0 -65 62 -65h9v-15z" />
    <glyph glyph-name="N" unicode="N" horiz-adv-x="667" 
d="M19 646h131l411 -503v447q0 19 -19 30t-38 12l-19 1v13h170v-12q-22 0 -37.5 -5t-23 -11.5t-11.5 -13.5t-5 -12v-4v-587l-472 568v-499q0 -22 20 -36t40 -17l20 -3v-14h-159v13q14 2 25.5 6.5t18.5 9.5t11.5 10.5t6.5 11t3 10t1 7.5v2v508q-1 23 -16.5 36t-28 15.5
t-24.5 2.5h-4z" />
    <glyph glyph-name="O" unicode="O" horiz-adv-x="555" 
d="M256 644q105 0 179 -94t74 -227t-74 -227t-179 -94t-179 94t-74 227t74 227t179 94zM423 323q0 127 -50 216.5t-121 89.5q-70 0 -120 -89.5t-50 -216.5t49.5 -216t120.5 -89t121 89t50 216z" />
    <glyph glyph-name="P" unicode="P" horiz-adv-x="511" 
d="M335 634q5 -1 14.5 -4.5t32.5 -19t41 -37t32.5 -62.5t14.5 -93v-18q0 -77 -60.5 -119t-141.5 -48h-94v-167q0 -24 21 -37.5t42 -14.5l21 -2v-13h-239v12q27 1 45 8t25 16.5t9.5 16t2.5 12.5v506q0 27 -22.5 42.5t-44.5 17.5l-22 3v13h179h24q77 0 120 -12zM395 409
q2 11 2 33q0 40 -14 75t-28 50l-14 15q-24 22 -65 35t-62.5 15t-37.5 2q-1 0 -1 -97v0v-292h21q54 0 94 17t59 41t30.5 48t13.5 41z" />
    <glyph glyph-name="Q" unicode="Q" horiz-adv-x="614" 
d="M524 -49l-30 -18q-14 -9 -35 -9q-18 0 -38 7t-31 15l-12 7q-46 31 -77 31l-13 -2q-34 3 -36 19q-101 8 -170.5 101.5t-69.5 222.5q0 135 75 230t181 95t181 -95t75 -230q0 -124 -66 -216.5t-163 -106.5q14 -6 45 -6h5q13 0 29 -4t26 -8l9 -5q25 -17 47 -17l20 4q6 3 12 7
t10.5 8.5t9 9.5t8.5 9t6.5 7.5t3.5 6.5l2 2q-5 -9 -5 -37zM437 328q0 127 -51 217.5t-122 90.5t-122 -90.5t-51 -217.5q0 -128 51 -218.5t122 -90.5t122 90.5t51 218.5z" />
    <glyph glyph-name="R" unicode="R" horiz-adv-x="560" 
d="M529 53l-34 -51q-48 0 -73 27q-3 2 -8 6.5t-18 22t-22.5 39t-17.5 58t-8 78.5q0 45 -30 68t-75 23h-76v-256q0 -24 20.5 -37.5t40.5 -14.5l20 -2v-13h-236v13q22 1 38 6t24 11.5t12.5 14t5.5 12t1 8.5v506q0 26 -22 41.5t-44 18.5l-22 2v13h189h11q17 0 36 -2.5t46 -9.5
t50.5 -25t37.5 -45q20 -38 20 -83q0 -106 -133 -140q5 1 13 1q15 0 30 -2.5t37 -12t38 -25t28 -46.5t13 -72q0 -6 0.5 -15.5t4.5 -34t10.5 -43.5t21 -34.5t34.5 -15.5q15 0 37 11zM315 415q22 36 22 85q0 48 -27 87q-5 5 -15 13t-47 21t-81 13v-297q13 2 33 6.5t60.5 24.5
t54.5 47z" />
    <glyph glyph-name="S" unicode="S" horiz-adv-x="417" 
d="M328 477l-14 2q0 31 -14 58.5t-28 39.5l-14 12q-43 40 -86 40q-20 0 -39 -8t-28 -16l-9 -8q-30 -37 -30 -76q0 -24 10.5 -46t21.5 -32l10 -10q9 -9 43.5 -32.5t64.5 -42.5l31 -18q109 -65 109 -171q0 -12 -1.5 -23t-2.5 -16l-2 -5q-34 -125 -168 -125l-42 4
q-36 9 -65.5 31.5t-40.5 40.5l-12 18l-21 -104v178h13q22 -60 60.5 -105t93.5 -45h7q33 0 57 11.5t36 26.5t19 35.5t8.5 32.5t1.5 23v5q-1 21 -17 44t-37.5 40.5t-42.5 32t-36 21.5l-15 8q-24 15 -45 31.5t-30 26.5l-9 9q-58 69 -58 132q0 34 16 64t32 43l16 13q43 28 91 28
l37 -5q31 -5 58 -18.5t39 -25.5l11 -11l21 60v-168z" />
    <glyph glyph-name="T" unicode="T" horiz-adv-x="602" 
d="M499 616l-182 1l-1 -549q0 -24 21 -37.5t41 -14.5l21 -2v-13h-238v13q22 1 38.5 6.5t24.5 11.5t12.5 14t5.5 12.5t1 8.5q0 1 1 557v0l1 -7h-184h-6t-14 -4t-18 -12.5t-14.5 -28t-6.5 -46.5v121h555v-114q0 3 -0.5 9t-4 20t-9 25t-17.5 20t-27 9z" />
    <glyph glyph-name="U" unicode="U" horiz-adv-x="667" 
d="M11 644h235v-15q-25 -2 -42.5 -11.5t-24.5 -23.5t-9 -23t-2 -18v-4v-308q0 -47 16.5 -89t33.5 -60l16 -19q61 -52 147 -52q15 0 29.5 1.5t21.5 3.5l7 2q33 10 58 40t36 65.5t17.5 69.5t7.5 57l1 23v300q0 47 -76 47v14h151v-14q-13 0 -23.5 -2.5t-17 -6.5t-10.5 -9
t-6 -10.5t-3 -9.5t-1 -6v-3v-298q0 -59 -13.5 -111.5t-27.5 -75.5l-14 -22q-47 -77 -166 -77q-22 0 -44 2.5t-34 5.5l-11 3q-49 10 -85 36.5t-52.5 58.5t-26 62.5t-10.5 50.5l-1 20v311q0 27 -9.5 45t-24.5 25t-24.5 9t-18.5 2v14z" />
    <glyph glyph-name="V" unicode="V" horiz-adv-x="672" 
d="M2 628v16h271v-15q-3 0 -9 -0.5t-20.5 -4.5t-25.5 -9.5t-20 -17t-9 -26.5q0 -9 3 -20l194 -433l174 466q1 2 1 6q0 36 -71 38l-1 16h143v-14q-4 0 -10 -1.5t-20 -13.5t-22 -32l-220 -583l-263 568q-1 2 -3.5 6.5t-11 14.5t-18.5 18t-26.5 14.5t-35.5 6.5z" />
    <glyph glyph-name="W" unicode="W" horiz-adv-x="944" 
d="M4 643h232v-16q-70 -1 -70 -51l2 -15l110 -420l195 502l245 -509l119 451q1 3 1 8q0 36 -76 36h-7v14h187v-14h-6q-32 0 -53 -12.5t-26 -24.5l-5 -12l-152 -579l-257 522l-201 -522l-162 568q-15 58 -76 58v16z" />
    <glyph glyph-name="X" unicode="X" horiz-adv-x="639" 
d="M22 645h285v-13q-98 -13 -98 -61l3 -13l134 -205l149 234q6 9 6 16q0 12 -14.5 18.5t-29.5 7.5l-15 1v16h170v-18q-29 0 -53 -8t-33 -16l-9 -9l-161 -260l158 -254q39 -68 93 -68h5v-14h-246v13q77 7 77 38q0 5 -2 10t-4 8l-2 3l-135 200l-150 -209q-5 -6 -5 -14
q0 -11 13.5 -19.5t27.5 -12.5l13 -3l-1 -14h-176v14q36 2 64 15.5t38 25.5l10 12l158 224l-186 294q-9 19 -30 31t-38 14l-16 2v14z" />
    <glyph glyph-name="Y" unicode="Y" horiz-adv-x="573" 
d="M6 633v13h187v-15q-3 0 -12 -1.5t-20 -7t-11 -12.5q0 -8 7 -18l158 -238l118 230q8 13 8 26q0 20 -27 20h-9l-1 16h138v-17h-7q-61 0 -85 -46l-129 -251v-263q0 -4 0.5 -8t5.5 -12.5t13 -15t24.5 -11.5t39.5 -6v-16h-237v17q12 0 25.5 1.5t33 15t19.5 36.5v253l-160 244
q-4 7 -12 18t-28.5 29.5t-38.5 18.5z" />
    <glyph glyph-name="Z" unicode="Z" horiz-adv-x="459" 
d="M43 565h-16v81h401l-297 -631h237q2 0 5 0.5t11.5 4t15 9t11.5 17.5t5 28h14v-75h-395l300 631h-248q-4 0 -11 -2.5t-19 -19t-14 -43.5z" />
    <glyph glyph-name="bracketleft" unicode="[" horiz-adv-x="243" 
d="M176 634h-66v-621h66v-13h-122v648h122v-14z" />
    <glyph glyph-name="backslash" unicode="\" horiz-adv-x="389" 
d="M37 665l29 11l248 -665l-30 -11z" />
    <glyph glyph-name="bracketright" unicode="]" horiz-adv-x="265" 
d="M56 634v14h122v-648h-122v13h66v621h-66z" />
    <glyph glyph-name="asciicircum" unicode="^" horiz-adv-x="833" 
d="M264 507h-31l143 161l142 -161h-31l-111 74z" />
    <glyph glyph-name="underscore" unicode="_" horiz-adv-x="292" 
d="M270 20v-20h-251v20h251z" />
    <glyph glyph-name="grave" unicode="`" horiz-adv-x="178" 
d="M95 674l34 -104h-26l-86 104h78z" />
    <glyph glyph-name="a" unicode="a" horiz-adv-x="389" 
d="M310 68q2 -25 16 -42t40 -17v-8h-126v35q-7 -10 -24 -18t-30 -11l-14 -3q-11 -2 -30 -2q-40 0 -69 17t-39 33l-9 17q-13 29 -13 55q0 32 18.5 58t37.5 36l19 11q32 9 56 9q70 0 97 -57v124q-3 43 -28 63t-57 20q-18 0 -34 -7q-12 -6 -22 -19q-25 -32 -25 -73v-4h-60
q6 36 24.5 61t43.5 35.5t44.5 14.5t39.5 4l19 -1q33 -1 58 -16.5t37 -36t19.5 -41.5t8.5 -35l2 -14v-188zM155 21q18 -2 23 -2q14 0 25.5 3.5t17 7.5t12 9t7.5 6v118q-21 51 -77 51l-19 -2q-23 -7 -39 -27.5t-20 -38.5l-4 -17v-4q0 -39 18.5 -65t36.5 -32z" />
    <glyph glyph-name="b" unicode="b" horiz-adv-x="542" 
d="M313 399q51 -2 88.5 -20.5t56 -41t29 -52.5t12.5 -47t2 -31v-4q0 -54 -18 -94t-41 -60t-54.5 -31.5t-49 -13.5t-32.5 -2h-5q-46 2 -79 18t-44 31l-10 15v-65h-153v14q3 0 8.5 0.5t18.5 3t23 8t18.5 17.5t8.5 28v152v343v4q0 11 -3.5 22.5t-22 24.5t-51.5 13v14h154v-357
q20 48 57 79.5t87 31.5zM423 203v14q0 39 -11.5 67.5t-27.5 42t-32.5 21.5t-27.5 9l-12 1q-5 1 -15 1q-27 0 -52 -12.5t-41 -31.5t-23.5 -29.5t-11.5 -18.5v-190q59 -47 118 -47q3 0 10.5 1t11.5 1q106 19 114 171z" />
    <glyph glyph-name="c" unicode="c" horiz-adv-x="334" 
d="M288 337h-12q0 44 -48 44q-13 0 -29 -3.5t-25 -7.5l-9 -3q-38 -21 -61 -63.5t-27 -74.5l-4 -32q0 -42 12 -74t29 -47t34 -24.5t29 -11.5l12 -2h5q30 0 50 8.5t29 22.5t12.5 26t3.5 25l-2 18h10q2 -10 2 -29q0 -38 -17 -63t-44 -34t-41 -11.5t-25 -2.5q-53 6 -89.5 30
t-51 56.5t-19.5 55.5t-5 45v12q2 38 14 71t27.5 53t31 34.5t26.5 20.5l10 5q48 22 89 22q21 0 38.5 -6t24.5 -12l6 -6l14 21v-63z" />
    <glyph glyph-name="d" unicode="d" horiz-adv-x="500" 
d="M413 71v-3q0 -7 2 -13.5t8 -17t22 -17t40 -6.5h8v-14h-157v63q-38 -57 -132 -62h-5q-15 0 -32.5 2t-48.5 13.5t-54 31.5t-41 60t-18 94v6q0 15 2 32t13 46t29 51t55 40t87 20q5 0 14 -1t32 -7.5t41.5 -16.5t35.5 -31t22 -48v285v3q0 9 -3 18t-21 19.5t-48 10.5h-5v14h154
v-572zM197 31q1 0 3.5 -0.5t7.5 -1t11 -0.5q58 0 117 47q0 6 1 10q0 181 -1 182q-5 10 -13.5 21.5t-24.5 28.5t-40 28.5t-50 11.5q-10 0 -15 -1q-5 0 -12 -1t-26.5 -9t-34 -21.5t-26.5 -42t-12 -67.5v-14q8 -153 115 -171z" />
    <glyph glyph-name="e" unicode="e" horiz-adv-x="403" 
d="M361 212l-267 -1q0 -74 32 -128.5t86 -56.5h5q13 0 28 3t36.5 12.5t38 34t21.5 59.5h14q-1 -5 -3 -13.5t-11 -30.5t-22.5 -39.5t-39.5 -33t-58 -18.5q-8 -1 -24 -1q-87 0 -131 57.5t-44 142.5q0 45 7.5 78t27 62t59 44t98.5 15q12 0 24.5 -1.5t36.5 -11.5t41.5 -26.5
t31 -51.5t13.5 -83v-12zM95 233v-11h187q1 10 1 24q0 21 -3 41t-11 43.5t-26 38t-45 14.5q-36 0 -60.5 -26.5t-33 -58.5t-9.5 -65z" />
    <glyph glyph-name="f" unicode="f" horiz-adv-x="361" 
d="M214 675h11q4 0 11.5 -1.5t26.5 -10t33.5 -20.5t26.5 -36t12 -55q0 -22 -6 -47l-53 46q9 18 9 43q0 1 -0.5 5t-0.5 6q-2 20 -19.5 35t-36.5 15q-12 0 -19 -5q-3 -2 -8 -8.5t-13 -41t-8 -85.5v-100h79v-19h-80v-326q1 -54 64 -54l16 1l2 -16h-240v15h8q16 0 29 3t20.5 8
t13.5 10.5t8.5 11.5t4 11t1.5 8l1 3v325h-86v19h86v107v9q0 18 3 37t12.5 46t33 44t58.5 17z" />
    <glyph glyph-name="g" unicode="g" horiz-adv-x="389" 
d="M268 260q0 54 -24 90t-64 36q-41 0 -65 -37.5t-24 -92.5q0 -54 24 -88t65 -34q40 0 64 36t24 90zM381 371q1 -4 1 -9q0 -19 -17 -23q-2 -1 -5 -1q-17 0 -20 29q-9 9 -21 9q-5 0 -11 -3q-17 -10 -20 -17q43 -40 43 -95q0 -56 -44.5 -96t-106.5 -40l-46 4q-18 -29 -18 -51
q0 -17 14 -25q29 -16 61 -24q121 -31 135 -104q0 -1 0.5 -5t0.5 -5q0 -57 -54 -103t-101 -46q-7 0 -13 1q-111 9 -150 129q-2 9 -2 22q0 62 56 85l14 -86q-27 -14 -27 -43q0 -25 27 -55q40 -45 89 -45q48 0 87 60q16 26 16 50q0 32 -25 52.5t-57 26.5q-3 1 -8.5 2.5
t-19.5 7.5t-25 14.5t-21 23t-13 32.5q-3 8 -3 21q0 35 25 71q-42 16 -68 50t-26 76q0 56 44.5 96t107.5 40q21 0 60 -11.5t44 -26.5q13 31 47 38q4 1 9 1q34 0 41 -27z" />
    <glyph glyph-name="h" unicode="h" 
d="M475 253v-178q0 -55 73 -56h7v-18h-234v18h6q70 0 71 53q1 27 1 108v68q0 2 -0.5 6.5t-2.5 16t-5.5 22.5t-11 24t-17 23t-24.5 16.5t-34 7.5q-79 0 -140 -78v-214q-1 -3 -1 -7q0 -7 2.5 -14t8.5 -15.5t20.5 -14t34.5 -5.5q2 0 6.5 0.5t7.5 0.5v-16h-234v16q81 0 81 54
q0 2 -3 385v133q0 42 -75 42l-3 14h154v-336q9 9 23.5 23t51.5 39t65 29q7 1 18 1q21 0 42 -5t48 -18.5t44.5 -45.5t19.5 -79z" />
    <glyph glyph-name="i" unicode="i" horiz-adv-x="277" 
d="M177 400v-65v-264q0 -6 2 -12.5t8.5 -17.5t24.5 -18t45 -7v-16h-234v16q3 0 8 0.5t18 3.5t23.5 8t19 16.5t9.5 26.5q1 18 1 92l-1 170q0 2 -0.5 5.5t-4.5 12.5t-11.5 16t-23.5 12.5t-38 5.5v15h154zM180 479q0 -17 -12 -28.5t-28 -11.5t-28 11.5t-12 28.5t12 28.5
t28 11.5t28 -11.5t12 -28.5z" />
    <glyph glyph-name="j" unicode="j" horiz-adv-x="334" 
d="M275 469q0 -16 -12 -27.5t-28 -11.5t-28 11.5t-12 27.5q0 17 11.5 28.5t28.5 11.5t28.5 -11.5t11.5 -28.5zM124 382v15h155v-488q0 -139 -107 -143h-12q-6 1 -17 3t-38 16.5t-48 37t-38 69t-17 107.5l87 -58q0 -6 1 -16.5t6 -37t12.5 -46.5t22.5 -36.5t35 -16.5
q4 0 10.5 2.5t17 32t10.5 83.5v431q1 1 1 3q0 7 -4.5 15.5t-24.5 17.5t-52 9z" />
    <glyph glyph-name="k" unicode="k" horiz-adv-x="565" 
d="M520 0l-222 1v13q50 0 50 22l-3 11l-153 201l-26 -19v-144q0 -31 20 -48.5t40 -19.5l20 -2v-14h-234v13q26 1 43.5 11t24 25t8.5 24.5t2 18.5v486q0 21 -15.5 33.5t-29 15t-27.5 2.5h-6v14h154v-394l212 191q4 7 4 12q0 13 -27 13l-12 -1v16h140v-16q-30 0 -51 -4.5
t-27 -8.5l-6 -5l-155 -151l160 -201q13 -18 43 -53q10 -12 28.5 -19t31.5 -8l13 -1v-14z" />
    <glyph glyph-name="l" unicode="l" horiz-adv-x="292" 
d="M32 632l-3 14h154v-573q0 -55 70 -56h11v-15h-235v14q3 0 8.5 0.5t18.5 3t23.5 8t19 17.5t8.5 28v156v352q0 51 -75 51z" />
    <glyph glyph-name="m" unicode="m" horiz-adv-x="889" 
d="M17 385h-11v13h154v-91q71 75 120 87q3 1 9 1q22 2 40 2q104 0 135 -98q10 11 27 27.5t57.5 44t65.5 27.5q5 1 12 1q16 0 33.5 -3.5t42 -14.5t45 -36.5t31.5 -63.5q4 -11 5 -70v-142l1 -3q1 -3 2.5 -7t5 -9.5t9.5 -11t14 -10t21 -7.5t28 -3v-16h-234v16q3 0 8 0.5
t17.5 3.5t22.5 7.5t19 15t10 24.5v157l-1 13q-2 13 -7.5 31.5t-15 38t-29 34.5t-46.5 18q-70 0 -140 -79v-213l5 -13q5 -12 24.5 -25.5t54.5 -15.5v-15h-235v15q3 0 8.5 0.5t19.5 3.5t25 8.5t20 16t9 25.5v169q0 11 -2 24.5t-10.5 39.5t-31 42.5t-57.5 16.5h-4h-5
q-65 0 -127 -76v-216q0 -9 3.5 -19t23 -22.5t52.5 -12.5v-15h-235v15q3 0 8.5 0.5t19.5 3t24.5 7.5t19.5 16t9 26v276q0 2 -1 4.5t-5 9.5t-11 12.5t-21 10t-32 4.5z" />
    <glyph glyph-name="n" unicode="n" horiz-adv-x="542" 
d="M248 -1h-234v16h5q26 0 49 14t27 36v266v5q0 10 -3.5 19.5t-21.5 20t-49 10.5h-8v13h154v-92l9 8q9 8 23 20t29.5 24.5t31.5 21.5t27 11q21 6 49 6q119 0 143 -131v-194q0 -51 81 -56v-17h-234v17h7.5t16.5 3t22 8t19 16t12 26v195l-3 10q-2 10 -8 23.5t-16.5 27.5
t-31 24t-46.5 10h-11q-8 -1 -20.5 -4t-43.5 -22t-54 -49v-215q-1 -1 -1 -4q0 -6 2.5 -13t10 -16t25 -15t42.5 -7v-16z" />
    <glyph glyph-name="o" unicode="o" horiz-adv-x="402" 
d="M309 202q0 81 -31 135t-83 54t-83.5 -52.5t-31.5 -132.5q0 -81 31.5 -136.5t83.5 -55.5t83 54t31 134zM195 406q80 0 137 -59.5t57 -142.5q0 -84 -57 -143.5t-137 -59.5t-137 59.5t-57 143.5q0 83 57 142.5t137 59.5z" />
    <glyph glyph-name="p" unicode="p" horiz-adv-x="541" 
d="M233 -241h-231l1 10q24 0 40.5 7t23.5 18t9 19t2 16v4v343v152q0 26 -19.5 40t-38.5 16l-19 1v14h153v-65q1 2 3.5 6t13.5 14.5t24.5 18.5t38 15.5t53.5 8.5h6q16 0 33.5 -2t48.5 -14t54 -31.5t40.5 -59t17.5 -93.5v-8q0 -79 -54.5 -133.5t-135.5 -54.5q-10 0 -23 3
t-36.5 12t-46 34t-36.5 62v-280q0 -2 0.5 -6.5t4 -15t10 -18.5t21 -14.5t34.5 -6.5h7zM298 42q5 0 12 1t26.5 9t34 21.5t26.5 42t12 67.5v14q-2 45 -15 79.5t-26.5 50.5t-33.5 26t-26 11.5t-15 2.5q-8 2 -22 2q-58 0 -116 -46v-190q4 -8 11 -18.5t23.5 -29.5t41 -31.5
t51.5 -12.5q11 0 16 1z" />
    <glyph glyph-name="q" unicode="q" horiz-adv-x="511" 
d="M492 -247h-232v17q32 1 51.5 12t23.5 21.5t4 21.5l-1 7v278q-20 -48 -57 -79.5t-87 -31.5q-51 0 -88.5 18t-56 41t-29 53.5t-12.5 47.5t-2 32v4q0 54 17.5 93.5t40.5 59t54 31.5t48.5 14t33.5 2h6q29 -1 53 -8t38 -16t24 -18t13 -15l4 -6v65h154v-14q-3 0 -8.5 -0.5
t-19 -3t-23.5 -8t-18.5 -17.5t-8.5 -28v-152v-343q0 -3 0.5 -7t4.5 -15t11.5 -19.5t23.5 -15.5t38 -7v-14zM83 195v-13q0 -39 11.5 -68t27.5 -42.5t32.5 -21.5t27.5 -9l12 -1q5 -1 16 -1q28 0 52.5 12.5t40.5 31.5t23.5 29.5t11.5 18.5v190q-58 46 -117 46l-21 -2
q-8 -1 -15 -2.5t-26.5 -11.5t-33.5 -26t-26.5 -50t-15.5 -80z" />
    <glyph glyph-name="r" unicode="r" horiz-adv-x="436" 
d="M264 399q10 2 25 2q18 0 34.5 -4.5t36.5 -16.5t35 -39t20 -66h-88q0 4 -1 10.5t-4.5 24t-9.5 30.5t-17 23.5t-26 10.5h-4q-3 0 -7.5 -0.5t-17.5 -5.5t-25.5 -13t-28.5 -26.5t-29 -43.5q1 -215 1 -217q0 -9 3 -18.5t22.5 -22t53.5 -12.5v-16h-234v16q3 0 8 0.5t18 3.5
t23.5 8t19 16.5t9.5 26.5q1 18 1 92l-1 170q0 2 -0.5 5.5t-4.5 12.5t-11.5 16t-23.5 12.5t-38 5.5v15h154v-90q43 77 107 90z" />
    <glyph glyph-name="s" unicode="s" horiz-adv-x="324" 
d="M256 262h-13q-6 38 -20.5 64.5t-33 37.5t-32.5 15t-28 4l-14 -1q-47 -21 -47 -52q0 -12 6.5 -23.5t13.5 -17.5l6 -6q3 -5 31 -21t54 -29l26 -13q72 -36 72 -114l-1 -14q-16 -91 -113 -91q-20 0 -40.5 3.5t-31.5 7.5l-11 4q-19 12 -32.5 23t-17.5 16l-4 5l-20 -60v139h12
q18 -69 53.5 -95t72.5 -26l25 3q50 20 50 63q0 8 -1.5 15.5t-3.5 11.5l-2 4q-8 14 -39 35.5t-57 35.5l-27 14q-74 33 -74 98q3 59 36.5 80.5t73.5 21.5l25 -2q17 -4 38 -17.5t34 -24.5l12 -12l22 53v-135z" />
    <glyph glyph-name="t" unicode="t" horiz-adv-x="375" 
d="M263 152l80 82q0 -61 -11 -107.5t-26.5 -69t-31 -36.5t-26.5 -17l-11 -3q-8 -1 -22 -1q-36 0 -62.5 15t-38.5 36t-18.5 42t-7.5 36l-1 15v312h-86v19h86v116q0 2 -1 4.5t-6 9t-13 12t-25.5 9.5t-40.5 4v15h158v-170h80v-19h-78v-310q0 -35 7 -61t17.5 -37t20.5 -17.5
t17 -6.5l7 -1q43 0 43 62q0 15 -2.5 31.5t-4.5 25.5z" />
    <glyph glyph-name="u" unicode="u" horiz-adv-x="583" 
d="M319 400h235v-16h-5q-27 0 -49.5 -14t-26.5 -36v-266v-6q0 -7 2.5 -14t9 -15.5t22.5 -14t39 -5.5h8v-13h-154v92q-81 -79 -120 -85q-21 -6 -49 -6q-118 0 -142 131v194l-1 5q0 5 -3.5 13t-11 16t-24.5 14t-42 8v15h235v-15h-7.5t-17 -3t-22.5 -8t-19 -16t-12 -26v-195
l2 -10q3 -10 9 -24t16.5 -27.5t31 -23.5t46.5 -10h11q8 1 20.5 4t44 22t54.5 49v215q0 52 -80 55v16z" />
    <glyph glyph-name="v" unicode="v" horiz-adv-x="542" 
d="M2 384v14h241v-15q-72 0 -72 -31q0 -8 2 -12l139 -250l134 277q0 23 -49 23h-11l1 8h112v-15q-3 1 -7 1q-20 0 -29 -14l-178 -369l-208 350q-23 33 -75 33z" />
    <glyph glyph-name="w" unicode="w" horiz-adv-x="833" 
d="M408 316l-146 -322l-179 350q-2 4 -7.5 10.5t-26 18t-45.5 12.5v14h241v-15q-72 0 -72 -31q0 -8 2 -12l111 -257l144 316l53 -82l125 -221l122 263q1 3 1 7q0 21 -48 21h-4v11h112v-15h-6q-19 0 -30 -13l-181 -377z" />
    <glyph glyph-name="x" unicode="x" horiz-adv-x="451" 
d="M34 399h177v-14q-46 -1 -46 -16l1 -4l83 -127l78 125q3 6 3 10q0 12 -27 12h-9l-1 14h107v-14q-21 0 -36 -4.5t-19 -8.5l-4 -4l-86 -139l104 -172q26 -45 58 -45v-13h-170l1 13q44 0 44 22l-2 10l-83 124l-93 -130q-3 -5 -3 -8q0 -6 8 -10.5t16 -5.5l8 -2v-13h-109v13
q22 1 39.5 8t23.5 14l6 6l98 139l-115 183q-12 23 -48 23h-4v14z" />
    <glyph glyph-name="y" unicode="y" 
d="M4 399h238v-13q-68 0 -68 -31l4 -14l168 -324l105 332q0 1 0.5 2.5t0.5 2.5q0 14 -14.5 22t-29.5 9l-14 1v13h144v-13q-30 0 -48.5 -12.5t-22.5 -25.5l-4 -12l-127 -413q-10 -37 -24.5 -66.5t-27.5 -46t-24.5 -27t-18.5 -13.5l-7 -4q-8 -2 -23 -2q-29 0 -52.5 16
t-35.5 38.5t-20 45.5t-11 39l-2 16l66 -47q0 -2 -0.5 -6t-0.5 -5q0 -25 15 -43.5t30 -24.5l15 -6q8 -2 11 -2q25 0 48 34.5t34 68.5l10 35l-225 417q-29 44 -82 44h-7v15z" />
    <glyph glyph-name="z" unicode="z" horiz-adv-x="391" 
d="M15 399l335 2v-91l-235 -298h176q19 1 29.5 19t11.5 35l1 18h11v-85h-344l321 387h-252q-18 0 -28 -16.5t-11 -33.5l-2 -16h-13v79z" />
    <glyph glyph-name="braceleft" unicode="{" horiz-adv-x="256" 
d="M171 635q-13 -1 -21.5 -9.5t-12.5 -20.5t-6.5 -24t-2.5 -20l-1 -8v-137q-3 -24 -12.5 -42.5t-21 -27t-23 -14t-18.5 -6.5l-8 -1q35 -5 55.5 -28t25 -40t4.5 -30v-121q0 -93 38 -93l4 1v-13q-32 0 -54.5 13t-31.5 33t-12 34t-3 24v119q0 32 -7 53t-18.5 28.5t-18.5 10
t-14 2.5v13q13 0 23.5 6.5t16.5 16t10 20.5t5.5 22.5t2.5 20.5t1 15v6v115q3 31 16 52t30 29.5t28.5 11t21.5 2.5h4v-13z" />
    <glyph glyph-name="bar" unicode="|" horiz-adv-x="136" 
d="M52 -1v674h26v-674h-26z" />
    <glyph glyph-name="braceright" unicode="}" horiz-adv-x="249" 
d="M41 632v13h4q10 0 21.5 -2.5t28.5 -11t30 -29.5t16 -52v-115v-6q0 -6 1 -15t2.5 -20.5t5.5 -22.5t10 -20.5t16.5 -16t23.5 -6.5v-13q-7 0 -14 -2.5t-18.5 -10t-18.5 -28.5t-7 -53v-119q0 -10 -3 -24t-12 -34t-31.5 -33t-54.5 -13v13q1 -1 4 -1q38 0 38 93v121q0 13 4 30
t25 40t55 28q-3 0 -8 1t-18 6.5t-23.5 14t-20.5 27t-13 42.5v137v8q-1 8 -3 20t-6 24t-12.5 20.5t-21.5 9.5z" />
    <glyph glyph-name="asciitilde" unicode="~" horiz-adv-x="833" 
d="M237 520h-23v8q0 45 13.5 78t26.5 43l14 10q21 15 51 15q16 0 24 -8q11 -5 28 -19t29 -26l11 -12q21 -20 41 -20h4q48 4 48 64v4h23v-9q0 -41 -10.5 -71t-21.5 -40l-11 -10q-26 -22 -56 -22q-19 0 -39 11.5t-31 23.5l-10 11q-34 38 -58 38q-22 -1 -35 -15.5t-15.5 -26.5
t-2.5 -23v-4z" />
    <glyph glyph-name="dieresis" unicode="&#xa8;" horiz-adv-x="392" 
d="M137 628q0 -18 -12.5 -30.5t-30.5 -12.5t-30.5 12.5t-12.5 30.5t12.5 30.5t30.5 12.5t30.5 -12.5t12.5 -30.5zM324 628q0 -18 -12.5 -30.5t-29.5 -12.5q-18 0 -30.5 12.5t-12.5 30.5t12.5 30.5t30.5 12.5q17 0 29.5 -12.5t12.5 -30.5z" />
    <glyph glyph-name="degree" unicode="&#xb0;" horiz-adv-x="192" 
d="M95 643q32 0 55 -23t23 -55t-23 -55t-55 -23t-55 23t-23 55t23 55t55 23zM161 565q0 28 -19 47t-47 19t-47 -19t-19 -47t19 -47t47 -19t47 19t19 47z" />
    <glyph glyph-name="acute" unicode="&#xb4;" horiz-adv-x="183" 
d="M29 569l35 104h77l-86 -104h-26z" />
    <glyph glyph-name="periodcentered" unicode="&#xb7;" horiz-adv-x="119" 
d="M82 359q0 -17 -12 -28.5t-28 -11.5t-28 11.5t-12 28.5t12 28.5t28 11.5t28 -11.5t12 -28.5z" />
    <glyph glyph-name="cedilla" unicode="&#xb8;" horiz-adv-x="205" 
d="M103 -15v13h11v-23q-2 0 -5.5 -1t-12 -4.5t-15 -8.5t-12 -14.5t-5.5 -20.5q0 -13 7 -28q12 -21 35 -21q25 0 51 30q12 11 12 38l9 3q1 -4 1 -9q0 -32 -30 -59q-25 -23 -58 -23q-27 0 -50 19q-23 20 -23 47q0 22 23 44q20 18 54 18h8z" />
    <glyph glyph-name="Agrave" unicode="&#xc0;" horiz-adv-x="762" 
d="M724 14v-13h-237v13q3 0 8 0.5t17.5 3t22 6.5t17.5 12t8 18q0 8 -2 12l-92 178h-275l-52 -149q-2 -6 -2 -15q0 -15 6.5 -28t32.5 -25.5t70 -12.5v-13h-236v13q66 0 103 69l224 565l294 -556q2 -6 7.5 -15.5t29.5 -30t56 -32.5zM199 259h258l-144 286zM318 778l34 -104
h-26l-86 104h78z" />
    <glyph glyph-name="Aacute" unicode="&#xc1;" horiz-adv-x="762" 
d="M724 14v-13h-237v13q3 0 8 0.5t17.5 3t22 6.5t17.5 12t8 18q0 8 -2 12l-92 178h-275l-52 -149q-2 -6 -2 -15q0 -15 6.5 -28t32.5 -25.5t70 -12.5v-13h-236v13q66 0 103 69l224 565l294 -556q2 -6 7.5 -15.5t29.5 -30t56 -32.5zM199 259h258l-144 286zM323 675l35 104h77
l-86 -104h-26z" />
    <glyph glyph-name="Acircumflex" unicode="&#xc2;" horiz-adv-x="762" 
d="M724 14v-13h-237v13q3 0 8 0.5t17.5 3t22 6.5t17.5 12t8 18q0 8 -2 12l-92 178h-275l-52 -149q-2 -6 -2 -15q0 -15 6.5 -28t32.5 -25.5t70 -12.5v-13h-236v13q66 0 103 69l224 565l294 -556q2 -6 7.5 -15.5t29.5 -30t56 -32.5zM199 259h258l-144 286zM225 674h-31
l142 161l143 -161h-31l-112 75z" />
    <glyph glyph-name="Atilde" unicode="&#xc3;" horiz-adv-x="762" 
d="M724 14q-32 12 -55 31.5t-31 32.5l-7 14l-294 556l-224 -565q-37 -69 -103 -69v-13h236v13q-44 0 -70 12.5t-32.5 25.5t-6.5 28l2 15l52 149h275l92 -178q2 -4 2 -12q0 -16 -18 -26t-36 -12l-19 -2v-13h237v13zM457 259h-258l114 286zM231 689h-19v6q0 37 11 63t22 34
l11 8q9 9 25 9q5 0 16.5 -1t18.5 -1q9 -4 22.5 -15.5t23.5 -21.5l9 -9q18 -17 36 -17q39 4 39 52v4h19v-5q0 -34 -8.5 -59t-17.5 -34l-9 -8q-20 -18 -42 -18h-4q-15 0 -31.5 9.5t-24.5 18.5l-9 10q-26 30 -46 30q-18 0 -28 -12t-12 -21.5t-2 -18.5v-3z" />
    <glyph glyph-name="Ccedilla" unicode="&#xc7;" horiz-adv-x="473" 
d="M275 -23q-51 -10 -51 -45q0 -8 2 -16t4 -12l3 -4q3 -7 15 -13t26 -6q48 0 57 69l9 -2v-8q0 -24 -14 -42.5t-28 -25.5l-13 -6q-17 -4 -34 -4q-29 0 -46.5 14t-20.5 26t-3 25v5q3 24 24 37.5t41 14.5l19 2v13h-10q-60 8 -105.5 36t-68.5 60.5t-37 74.5t-17.5 70.5
t-3.5 55.5l1 24q3 62 19.5 115.5t37.5 85.5t42 55.5t35 32.5l15 9q67 36 121 36q29 0 52.5 -10t32.5 -20l9 -9l18 34v-103h-17q-1 88 -89 88q-13 0 -26.5 -2t-20.5 -4l-7 -2q-40 -16 -70.5 -52.5t-45 -76.5t-23 -78t-9.5 -63l-2 -24q-1 -11 -1 -33q0 -61 15.5 -111t37.5 -78
t44.5 -47.5t37.5 -26.5l16 -6q27 -7 50 -7q29 0 48.5 11.5t28 30t11.5 34.5t3 34l-1 24l33 67q5 -26 5 -58q0 -49 -16 -83.5t-42.5 -51t-47 -23t-42.5 -8.5z" />
    <glyph glyph-name="Egrave" unicode="&#xc8;" 
d="M5 653h491v-98h-13q-2 24 -10.5 41.5t-20 25.5t-22.5 12.5t-18 5.5h-8h-237v-307h219q24 1 38 18t16.5 30t2.5 26v4h16v-160h-15v5q0 28 -15 44t-29 18l-15 2h-218v-308h264q23 0 36 19t14.5 32.5t1.5 25.5h13v-88h-484v12q82 4 82 55v508q0 27 -22 43t-44 18l-23 2v14z
M236 780l34 -104h-26l-86 104h78z" />
    <glyph glyph-name="Eacute" unicode="&#xc9;" 
d="M5 653h491v-98h-13q-2 24 -10.5 41.5t-20 25.5t-22.5 12.5t-18 5.5h-8h-237v-307h219q24 1 38 18t16.5 30t2.5 26v4h16v-160h-15v5q0 28 -15 44t-29 18l-15 2h-218v-308h264q23 0 36 19t14.5 32.5t1.5 25.5h13v-88h-484v12q82 4 82 55v508q0 27 -22 43t-44 18l-23 2v14z
M232 674l35 104h77l-86 -104h-26z" />
    <glyph glyph-name="Ecircumflex" unicode="&#xca;" 
d="M5 653h491v-98h-13q-2 24 -10.5 41.5t-20 25.5t-22.5 12.5t-18 5.5h-8h-237v-307h219q24 1 38 18t16.5 30t2.5 26v4h16v-160h-15v5q0 28 -15 44t-29 18l-15 2h-218v-308h264q23 0 36 19t14.5 32.5t1.5 25.5h13v-88h-484v12q82 4 82 55v508q0 27 -22 43t-44 18l-23 2v14z
M155 674h-31l142 161l143 -161h-31l-112 75z" />
    <glyph glyph-name="Edieresis" unicode="&#xcb;" 
d="M5 653h491v-98h-13q-2 24 -10.5 41.5t-20 25.5t-22.5 12.5t-18 5.5h-8h-237v-307h219q24 1 38 18t16.5 30t2.5 26v4h16v-160h-15v5q0 28 -15 44t-29 18l-15 2h-218v-308h264q23 0 36 19t14.5 32.5t1.5 25.5h13v-88h-484v12q82 4 82 55v508q0 27 -22 43t-44 18l-23 2v14z
M219 717q0 -18 -12.5 -30.5t-30.5 -12.5t-30.5 12.5t-12.5 30.5t12.5 30.5t30.5 12.5t30.5 -12.5t12.5 -30.5zM406 717q0 -18 -12.5 -30.5t-29.5 -12.5q-18 0 -30.5 12.5t-12.5 30.5t12.5 30.5t30.5 12.5q17 0 29.5 -12.5t12.5 -30.5z" />
    <glyph glyph-name="Igrave" unicode="&#xcc;" horiz-adv-x="328" 
d="M18 646h246v-13q-38 0 -59 -15.5t-23 -31.5l-2 -16v-505q0 -23 21 -36t42 -15l21 -1v-14h-239v13q82 4 82 54v504q0 27 -22.5 42.5t-44.5 17.5l-22 2v14zM127 780l34 -104h-26l-86 104h78z" />
    <glyph glyph-name="Iacute" unicode="&#xcd;" horiz-adv-x="328" 
d="M18 646h246v-13q-38 0 -59 -15.5t-23 -31.5l-2 -16v-505q0 -23 21 -36t42 -15l21 -1v-14h-239v13q82 4 82 54v504q0 27 -22.5 42.5t-44.5 17.5l-22 2v14zM128 675l35 104h77l-86 -104h-26z" />
    <glyph glyph-name="Icircumflex" unicode="&#xce;" horiz-adv-x="328" 
d="M18 646h246v-13q-38 0 -59 -15.5t-23 -31.5l-2 -16v-505q0 -23 21 -36t42 -15l21 -1v-14h-239v13q82 4 82 54v504q0 27 -22.5 42.5t-44.5 17.5l-22 2v14zM34 681h-31l142 161l143 -161h-31l-112 75z" />
    <glyph glyph-name="Idieresis" unicode="&#xcf;" horiz-adv-x="328" 
d="M18 646h246v-13q-38 0 -59 -15.5t-23 -31.5l-2 -16v-505q0 -23 21 -36t42 -15l21 -1v-14h-239v13q82 4 82 54v504q0 27 -22.5 42.5t-44.5 17.5l-22 2v14zM98 712q0 -16 -11 -27t-27 -11t-27.5 11t-11.5 27t11.5 27t27.5 11t27 -11t11 -27zM264 712q0 -16 -11 -27t-26 -11
q-16 0 -27 11t-11 27t11 27t27 11q15 0 26 -11t11 -27z" />
    <glyph glyph-name="Ntilde" unicode="&#xd1;" horiz-adv-x="833" 
d="M19 646h131l411 -503v447q0 19 -19 30t-38 12l-19 1v13h170v-12q-22 0 -37.5 -5t-23 -11.5t-11.5 -13.5t-5 -12v-4v-587l-472 568v-499q0 -22 20 -36t40 -17l20 -3v-14h-159v13q14 2 25.5 6.5t18.5 9.5t11.5 10.5t6.5 11t3 10t1 7.5v2v508q-1 23 -16.5 36t-28 15.5
t-24.5 2.5h-4zM215 676h-23v8q0 45 13.5 77.5t26.5 42.5l14 10q12 11 32 11q6 0 20.5 -1.5t22.5 -1.5q11 -5 28 -19t29 -26l11 -12q22 -21 44 -21q49 5 49 65v4h23v-6q0 -26 -4.5 -48.5t-10.5 -36t-12.5 -23t-11.5 -13.5l-4 -3q-24 -22 -52 -22h-5q-19 0 -39 11.5t-30 23.5
l-11 11q-32 37 -57 37q-22 0 -35 -14.5t-15.5 -26.5t-2.5 -23v-4z" />
    <glyph glyph-name="Ograve" unicode="&#xd2;" horiz-adv-x="558" 
d="M256 644q105 0 179 -94t74 -227t-74 -227t-179 -94t-179 94t-74 227t74 227t179 94zM423 323q0 127 -50 216.5t-121 89.5q-70 0 -120 -89.5t-50 -216.5t49.5 -216t120.5 -89t121 89t50 216zM228 777l34 -104h-26l-86 104h78z" />
    <glyph glyph-name="Oacute" unicode="&#xd3;" horiz-adv-x="558" 
d="M256 644q105 0 179 -94t74 -227t-74 -227t-179 -94t-179 94t-74 227t74 227t179 94zM423 323q0 127 -50 216.5t-121 89.5q-70 0 -120 -89.5t-50 -216.5t49.5 -216t120.5 -89t121 89t50 216zM240 675l35 104h77l-86 -104h-26z" />
    <glyph glyph-name="Ocircumflex" unicode="&#xd4;" horiz-adv-x="558" 
d="M256 644q105 0 179 -94t74 -227t-74 -227t-179 -94t-179 94t-74 227t74 227t179 94zM423 323q0 127 -50 216.5t-121 89.5q-70 0 -120 -89.5t-50 -216.5t49.5 -216t120.5 -89t121 89t50 216zM139 674h-31l142 161l143 -161h-31l-112 75z" />
    <glyph glyph-name="Otilde" unicode="&#xd5;" horiz-adv-x="558" 
d="M256 644q-105 0 -179 -94t-74 -227t74 -227t179 -94t179 94t74 227t-74 227t-179 94zM423 323q0 -127 -50 -216t-121 -89t-120.5 89t-49.5 216t50 216.5t120 89.5q71 0 121 -89.5t50 -216.5zM135 687h-19v7q0 36 11 62t22 34l11 8q9 9 26 9q5 0 16 -1t18 -1
q8 -4 22 -15.5t24 -21.5l9 -9q18 -17 35 -17q40 4 40 52v4h18v-5q0 -34 -8.5 -59t-17.5 -33l-8 -8q-20 -18 -42 -18h-4q-15 0 -31.5 9.5t-24.5 18.5l-9 9q-26 30 -46 30q-42 -1 -42 -51v-4z" />
    <glyph glyph-name="Odieresis" unicode="&#xd6;" horiz-adv-x="558" 
d="M256 644q105 0 179 -94t74 -227t-74 -227t-179 -94t-179 94t-74 227t74 227t179 94zM423 323q0 127 -50 216.5t-121 89.5q-70 0 -120 -89.5t-50 -216.5t49.5 -216t120.5 -89t121 89t50 216zM200 715q0 -18 -12.5 -30.5t-30.5 -12.5t-30.5 12.5t-12.5 30.5t12.5 30.5
t30.5 12.5t30.5 -12.5t12.5 -30.5zM387 715q0 -18 -12.5 -30.5t-29.5 -12.5q-18 0 -30.5 12.5t-12.5 30.5t12.5 30.5t30.5 12.5q17 0 29.5 -12.5t12.5 -30.5z" />
    <glyph glyph-name="Ugrave" unicode="&#xd9;" horiz-adv-x="666" 
d="M11 644h235v-15q-25 -2 -42.5 -11.5t-24.5 -23.5t-9 -23t-2 -18v-4v-308q0 -47 16.5 -89t33.5 -60l16 -19q61 -52 147 -52q15 0 29.5 1.5t21.5 3.5l7 2q33 10 58 40t36 65.5t17.5 69.5t7.5 57l1 23v300q0 47 -76 47v14h151v-14q-13 0 -23.5 -2.5t-17 -6.5t-10.5 -9
t-6 -10.5t-3 -9.5t-1 -6v-3v-298q0 -59 -13.5 -111.5t-27.5 -75.5l-14 -22q-47 -77 -166 -77q-22 0 -44 2.5t-34 5.5l-11 3q-49 10 -85 36.5t-52.5 58.5t-26 62.5t-10.5 50.5l-1 20v311q0 27 -9.5 45t-24.5 25t-24.5 9t-18.5 2v14zM319 780l34 -104h-26l-86 104h78z" />
    <glyph glyph-name="Uacute" unicode="&#xda;" horiz-adv-x="666" 
d="M11 644h235v-15q-25 -2 -42.5 -11.5t-24.5 -23.5t-9 -23t-2 -18v-4v-308q0 -47 16.5 -89t33.5 -60l16 -19q61 -52 147 -52q15 0 29.5 1.5t21.5 3.5l7 2q33 10 58 40t36 65.5t17.5 69.5t7.5 57l1 23v300q0 47 -76 47v14h151v-14q-13 0 -23.5 -2.5t-17 -6.5t-10.5 -9
t-6 -10.5t-3 -9.5t-1 -6v-3v-298q0 -59 -13.5 -111.5t-27.5 -75.5l-14 -22q-47 -77 -166 -77q-22 0 -44 2.5t-34 5.5l-11 3q-49 10 -85 36.5t-52.5 58.5t-26 62.5t-10.5 50.5l-1 20v311q0 27 -9.5 45t-24.5 25t-24.5 9t-18.5 2v14zM316 677l35 104h77l-86 -104h-26z" />
    <glyph glyph-name="Ucircumflex" unicode="&#xdb;" horiz-adv-x="666" 
d="M11 644h235v-15q-25 -2 -42.5 -11.5t-24.5 -23.5t-9 -23t-2 -18v-4v-308q0 -47 16.5 -89t33.5 -60l16 -19q61 -52 147 -52q15 0 29.5 1.5t21.5 3.5l7 2q33 10 58 40t36 65.5t17.5 69.5t7.5 57l1 23v300q0 47 -76 47v14h151v-14q-13 0 -23.5 -2.5t-17 -6.5t-10.5 -9
t-6 -10.5t-3 -9.5t-1 -6v-3v-298q0 -59 -13.5 -111.5t-27.5 -75.5l-14 -22q-47 -77 -166 -77q-22 0 -44 2.5t-34 5.5l-11 3q-49 10 -85 36.5t-52.5 58.5t-26 62.5t-10.5 50.5l-1 20v311q0 27 -9.5 45t-24.5 25t-24.5 9t-18.5 2v14zM241 676h-31l142 161l143 -161h-31
l-112 75z" />
    <glyph glyph-name="Udieresis" unicode="&#xdc;" horiz-adv-x="666" 
d="M11 644h235v-15q-25 -2 -42.5 -11.5t-24.5 -23.5t-9 -23t-2 -18v-4v-308q0 -47 16.5 -89t33.5 -60l16 -19q61 -52 147 -52q15 0 29.5 1.5t21.5 3.5l7 2q33 10 58 40t36 65.5t17.5 69.5t7.5 57l1 23v300q0 47 -76 47v14h151v-14q-13 0 -23.5 -2.5t-17 -6.5t-10.5 -9
t-6 -10.5t-3 -9.5t-1 -6v-3v-298q0 -59 -13.5 -111.5t-27.5 -75.5l-14 -22q-47 -77 -166 -77q-22 0 -44 2.5t-34 5.5l-11 3q-49 10 -85 36.5t-52.5 58.5t-26 62.5t-10.5 50.5l-1 20v311q0 27 -9.5 45t-24.5 25t-24.5 9t-18.5 2v14zM300 717q0 -18 -12.5 -30.5t-30.5 -12.5
t-30.5 12.5t-12.5 30.5t12.5 30.5t30.5 12.5t30.5 -12.5t12.5 -30.5zM487 717q0 -18 -12.5 -30.5t-29.5 -12.5q-18 0 -30.5 12.5t-12.5 30.5t12.5 30.5t30.5 12.5q17 0 29.5 -12.5t12.5 -30.5z" />
    <glyph glyph-name="agrave" unicode="&#xe0;" horiz-adv-x="408" 
d="M310 68q2 -25 16 -42t40 -17v-8h-126v35q-7 -10 -24 -18t-30 -11l-14 -3q-11 -2 -30 -2q-40 0 -69 17t-39 33l-9 17q-13 29 -13 55q0 32 18.5 58t37.5 36l19 11q32 9 56 9q70 0 97 -57v124q-3 43 -28 63t-57 20q-18 0 -34 -7q-12 -6 -22 -19q-25 -32 -25 -73v-4h-60
q6 36 24.5 61t43.5 35.5t44.5 14.5t39.5 4l19 -1q33 -1 58 -16.5t37 -36t19.5 -41.5t8.5 -35l2 -14v-188zM155 21q18 -2 23 -2q14 0 25.5 3.5t17 7.5t12 9t7.5 6v118q-21 51 -77 51l-19 -2q-23 -7 -39 -27.5t-20 -38.5l-4 -17v-4q0 -39 18.5 -65t36.5 -32zM148 548l34 -104
h-26l-86 104h78z" />
    <glyph glyph-name="aacute" unicode="&#xe1;" horiz-adv-x="408" 
d="M310 68q2 -25 16 -42t40 -17v-8h-126v35q-7 -10 -24 -18t-30 -11l-14 -3q-11 -2 -30 -2q-40 0 -69 17t-39 33l-9 17q-13 29 -13 55q0 32 18.5 58t37.5 36l19 11q32 9 56 9q70 0 97 -57v124q-3 43 -28 63t-57 20q-18 0 -34 -7q-12 -6 -22 -19q-25 -32 -25 -73v-4h-60
q6 36 24.5 61t43.5 35.5t44.5 14.5t39.5 4l19 -1q33 -1 58 -16.5t37 -36t19.5 -41.5t8.5 -35l2 -14v-188zM155 21q18 -2 23 -2q14 0 25.5 3.5t17 7.5t12 9t7.5 6v118q-21 51 -77 51l-19 -2q-23 -7 -39 -27.5t-20 -38.5l-4 -17v-4q0 -39 18.5 -65t36.5 -32zM155 435l35 104
h77l-86 -104h-26z" />
    <glyph glyph-name="acircumflex" unicode="&#xe2;" horiz-adv-x="408" 
d="M310 68q2 -25 16 -42t40 -17v-8h-126v35q-7 -10 -24 -18t-30 -11l-14 -3q-11 -2 -30 -2q-40 0 -69 17t-39 33l-9 17q-13 29 -13 55q0 32 18.5 58t37.5 36l19 11q32 9 56 9q70 0 97 -57v124q-3 43 -28 63t-57 20q-18 0 -34 -7q-12 -6 -22 -19q-25 -32 -25 -73v-4h-60
q6 36 24.5 61t43.5 35.5t44.5 14.5t39.5 4l19 -1q33 -1 58 -16.5t37 -36t19.5 -41.5t8.5 -35l2 -14v-188zM155 21q18 -2 23 -2q14 0 25.5 3.5t17 7.5t12 9t7.5 6v118q-21 51 -77 51l-19 -2q-23 -7 -39 -27.5t-20 -38.5l-4 -17v-4q0 -39 18.5 -65t36.5 -32zM75 415h-28
l127 144l128 -144h-28l-100 67z" />
    <glyph glyph-name="atilde" unicode="&#xe3;" horiz-adv-x="408" 
d="M310 68q2 -25 16 -42t40 -17v-8h-126v35q-7 -10 -24 -18t-30 -11l-14 -3q-11 -2 -30 -2q-40 0 -69 17t-39 33l-9 17q-13 29 -13 55q0 32 18.5 58t37.5 36l19 11q32 9 56 9q70 0 97 -57v124q-3 43 -28 63t-57 20q-18 0 -34 -7q-12 -6 -22 -19q-25 -32 -25 -73v-4h-60
q6 36 24.5 61t43.5 35.5t44.5 14.5t39.5 4l19 -1q33 -1 58 -16.5t37 -36t19.5 -41.5t8.5 -35l2 -14v-188zM155 21q18 -2 23 -2q14 0 25.5 3.5t17 7.5t12 9t7.5 6v118q-21 51 -77 51l-19 -2q-23 -7 -39 -27.5t-20 -38.5l-4 -17v-4q0 -39 18.5 -65t36.5 -32zM68 449h-17v6
q0 34 10 58.5t20 32.5l10 7q9 8 24 8q5 0 15.5 -1t16.5 -1q8 -4 21 -14.5t22 -19.5l8 -9q17 -16 33 -16q37 4 37 49v3h17v-4q0 -32 -8 -55t-16 -31l-8 -7q-19 -17 -39 -17h-4q-14 0 -29 9t-23 17l-8 9q-23 27 -42 27q-40 0 -40 -48v-3z" />
    <glyph glyph-name="adieresis" unicode="&#xe4;" horiz-adv-x="408" 
d="M310 68q2 -25 16 -42t40 -17v-8h-126v35q-7 -10 -24 -18t-30 -11l-14 -3q-11 -2 -30 -2q-40 0 -69 17t-39 33l-9 17q-13 29 -13 55q0 32 18.5 58t37.5 36l19 11q32 9 56 9q70 0 97 -57v124q-3 43 -28 63t-57 20q-18 0 -34 -7q-12 -6 -22 -19q-25 -32 -25 -73v-4h-60
q6 36 24.5 61t43.5 35.5t44.5 14.5t39.5 4l19 -1q33 -1 58 -16.5t37 -36t19.5 -41.5t8.5 -35l2 -14v-188zM155 21q18 -2 23 -2q14 0 25.5 3.5t17 7.5t12 9t7.5 6v118q-21 51 -77 51l-19 -2q-23 -7 -39 -27.5t-20 -38.5l-4 -17v-4q0 -39 18.5 -65t36.5 -32zM123 467
q0 -18 -12.5 -30.5t-30.5 -12.5t-30.5 12.5t-12.5 30.5t12.5 30.5t30.5 12.5t30.5 -12.5t12.5 -30.5zM310 467q0 -18 -12.5 -30.5t-29.5 -12.5q-18 0 -30.5 12.5t-12.5 30.5t12.5 30.5t30.5 12.5q17 0 29.5 -12.5t12.5 -30.5z" />
    <glyph glyph-name="ccedilla" unicode="&#xe7;" horiz-adv-x="375" 
d="M170 -26q-41 -7 -41 -35q0 -6 1.5 -12t3.5 -9l2 -4q9 -15 32 -15q37 0 45 54l7 -2v-7q0 -19 -11 -33t-21 -19l-11 -5q-15 -3 -25 -3q-18 0 -30 6t-17 15t-7 16t-2 14v4q2 19 18 29.5t32 11.5l15 1v20q-51 7 -85.5 31t-48.5 56t-18.5 54.5t-4.5 44.5v12q2 38 14 71
t27.5 53t31 34.5t25.5 20.5l11 5q48 22 89 22q21 0 38.5 -6t23.5 -12l7 -6l14 21v-63h-13q0 44 -48 44q-13 0 -28.5 -3.5t-24.5 -7.5l-9 -3q-38 -21 -61.5 -63.5t-27.5 -74.5l-4 -32q0 -42 12 -74t29 -47t34 -24.5t29 -11.5l12 -2h5q30 0 50 8t29 22t12.5 26t3.5 25l-2 19
h11q2 -10 2 -28q0 -30 -12 -52.5t-28 -33.5t-36 -17.5t-31 -7.5t-19 -1v-26z" />
    <glyph glyph-name="egrave" unicode="&#xe8;" horiz-adv-x="417" 
d="M340 212l-267 -1q0 -74 32 -128.5t86 -56.5h5q13 0 28 3t36.5 12.5t38 34t21.5 59.5h14q-1 -5 -3 -13.5t-11 -30.5t-22.5 -39.5t-39.5 -33t-58 -18.5q-8 -1 -24 -1q-87 0 -131 57.5t-44 142.5q0 45 7.5 78t27 62t59 44t98.5 15q12 0 24.5 -1.5t36.5 -11.5t41.5 -26.5
t31 -51.5t13.5 -83v-12zM74 233v-11h187q1 10 1 24q0 21 -3 41t-11 43.5t-26 38t-45 14.5q-36 0 -60.5 -26.5t-33 -58.5t-9.5 -65zM156 530l34 -104h-26l-86 104h78z" />
    <glyph glyph-name="eacute" unicode="&#xe9;" horiz-adv-x="417" 
d="M340 212l-267 -1q0 -74 32 -128.5t86 -56.5h5q13 0 28 3t36.5 12.5t38 34t21.5 59.5h14q-1 -5 -3 -13.5t-11 -30.5t-22.5 -39.5t-39.5 -33t-58 -18.5q-8 -1 -24 -1q-87 0 -131 57.5t-44 142.5q0 45 7.5 78t27 62t59 44t98.5 15q12 0 24.5 -1.5t36.5 -11.5t41.5 -26.5
t31 -51.5t13.5 -83v-12zM74 233v-11h187q1 10 1 24q0 21 -3 41t-11 43.5t-26 38t-45 14.5q-36 0 -60.5 -26.5t-33 -58.5t-9.5 -65zM154 427l35 104h77l-86 -104h-26z" />
    <glyph glyph-name="ecircumflex" unicode="&#xea;" horiz-adv-x="417" 
d="M340 212l-267 -1q0 -74 32 -128.5t86 -56.5h5q13 0 28 3t36.5 12.5t38 34t21.5 59.5h14q-1 -5 -3 -13.5t-11 -30.5t-22.5 -39.5t-39.5 -33t-58 -18.5q-8 -1 -24 -1q-87 0 -131 57.5t-44 142.5q0 45 7.5 78t27 62t59 44t98.5 15q12 0 24.5 -1.5t36.5 -11.5t41.5 -26.5
t31 -51.5t13.5 -83v-12zM74 233v-11h187q1 10 1 24q0 21 -3 41t-11 43.5t-26 38t-45 14.5q-36 0 -60.5 -26.5t-33 -58.5t-9.5 -65zM60 420h-31l142 161l143 -161h-31l-112 75z" />
    <glyph glyph-name="edieresis" unicode="&#xeb;" horiz-adv-x="417" 
d="M340 212l-267 -1q0 -74 32 -128.5t86 -56.5h5q13 0 28 3t36.5 12.5t38 34t21.5 59.5h14q-1 -5 -3 -13.5t-11 -30.5t-22.5 -39.5t-39.5 -33t-58 -18.5q-8 -1 -24 -1q-87 0 -131 57.5t-44 142.5q0 45 7.5 78t27 62t59 44t98.5 15q12 0 24.5 -1.5t36.5 -11.5t41.5 -26.5
t31 -51.5t13.5 -83v-12zM74 233v-11h187q1 10 1 24q0 21 -3 41t-11 43.5t-26 38t-45 14.5q-36 0 -60.5 -26.5t-33 -58.5t-9.5 -65zM136 458q0 -16 -11 -27t-27 -11t-26.5 11t-10.5 27t10.5 26.5t26.5 10.5t27 -10.5t11 -26.5zM300 458q0 -16 -11 -27t-26 -11q-16 0 -27 11
t-11 27t11 26.5t27 10.5q15 0 26 -10.5t11 -26.5z" />
    <glyph glyph-name="igrave" unicode="&#xec;" horiz-adv-x="292" 
d="M177 400v-65v-264q0 -6 2 -12.5t8.5 -17.5t24.5 -18t45 -7v-16h-234v16q3 0 8 0.5t18 3.5t23.5 8t19 16.5t9.5 26.5q1 18 1 92l-1 170q0 2 -0.5 5.5t-4.5 12.5t-11.5 16t-23.5 12.5t-38 5.5v15h154zM124 523l34 -104h-26l-86 104h78z" />
    <glyph glyph-name="iacute" unicode="&#xed;" horiz-adv-x="292" 
d="M177 400v-65v-264q0 -6 2 -12.5t8.5 -17.5t24.5 -18t45 -7v-16h-234v16q3 0 8 0.5t18 3.5t23.5 8t19 16.5t9.5 26.5q1 18 1 92l-1 170q0 2 -0.5 5.5t-4.5 12.5t-11.5 16t-23.5 12.5t-38 5.5v15h154zM114 423l35 104h77l-86 -104h-26z" />
    <glyph glyph-name="icircumflex" unicode="&#xee;" horiz-adv-x="292" 
d="M177 400v-65v-264q0 -6 2 -12.5t8.5 -17.5t24.5 -18t45 -7v-16h-234v16q3 0 8 0.5t18 3.5t23.5 8t19 16.5t9.5 26.5q1 18 1 92l-1 170q0 2 -0.5 5.5t-4.5 12.5t-11.5 16t-23.5 12.5t-38 5.5v15h154zM52 448h-21l93 105l93 -105h-20l-73 49z" />
    <glyph glyph-name="idieresis" unicode="&#xef;" horiz-adv-x="292" 
d="M177 400v-65v-264q0 -6 2 -12.5t8.5 -17.5t24.5 -18t45 -7v-16h-234v16q3 0 8 0.5t18 3.5t23.5 8t19 16.5t9.5 26.5q1 18 1 92l-1 170q0 2 -0.5 5.5t-4.5 12.5t-11.5 16t-23.5 12.5t-38 5.5v15h154zM72 453q0 -13 -9 -22t-22 -9q-14 0 -23 9t-9 22t9.5 22.5t22.5 9.5
t22 -9.5t9 -22.5zM211 453q0 -13 -9 -22t-22 -9q-14 0 -23 9t-9 22t9 22.5t23 9.5q13 0 22 -9.5t9 -22.5z" />
    <glyph glyph-name="ntilde" unicode="&#xf1;" horiz-adv-x="590" 
d="M14 -1h234v16q-25 1 -42.5 7t-25 15t-10 16t-2.5 13l1 4v215q23 30 52.5 49t47.5 22l18 4h11q26 0 46.5 -10t31 -24t16.5 -27.5t8 -23.5l3 -10v-195q-4 -24 -23.5 -37t-36.5 -15l-17 -1v-17h234v17q-81 5 -81 56v194q-24 131 -143 131q-12 0 -24.5 -1.5t-18.5 -2.5l-6 -2
q-11 -2 -27 -11t-31.5 -21.5t-29.5 -24.5t-23 -20l-9 -8v92h-154v-13h8q31 0 49 -10.5t21.5 -20t3.5 -19.5v-5v-266q-4 -22 -27 -36t-49 -14h-5v-16zM187 464h-19v7q0 24 4.5 43.5t11 30.5t13.5 19t11 11l5 3q10 9 26 9q5 0 17 -1.5t19 -1.5q9 -4 23 -16t24 -22l9 -9
q18 -17 36 -17q40 4 40 53v4h19v-5q0 -35 -9 -60.5t-17 -33.5l-9 -8q-19 -18 -43 -18h-4q-16 0 -32.5 9.5t-25.5 18.5l-8 10q-27 30 -47 30q-18 0 -29 -12t-13 -22t-2 -19v-3z" />
    <glyph glyph-name="ograve" unicode="&#xf2;" horiz-adv-x="411" 
d="M309 202q0 81 -31 135t-83 54t-83.5 -52.5t-31.5 -132.5q0 -81 31.5 -136.5t83.5 -55.5t83 54t31 134zM195 406q80 0 137 -59.5t57 -142.5q0 -84 -57 -143.5t-137 -59.5t-137 59.5t-57 143.5q0 83 57 142.5t137 59.5zM170 537l34 -104h-26l-86 104h78z" />
    <glyph glyph-name="oacute" unicode="&#xf3;" horiz-adv-x="411" 
d="M309 202q0 81 -31 135t-83 54t-83.5 -52.5t-31.5 -132.5q0 -81 31.5 -136.5t83.5 -55.5t83 54t31 134zM195 406q80 0 137 -59.5t57 -142.5q0 -84 -57 -143.5t-137 -59.5t-137 59.5t-57 143.5q0 83 57 142.5t137 59.5zM183 430l35 104h77l-86 -104h-26z" />
    <glyph glyph-name="ocircumflex" unicode="&#xf4;" horiz-adv-x="411" 
d="M309 202q0 81 -31 135t-83 54t-83.5 -52.5t-31.5 -132.5q0 -81 31.5 -136.5t83.5 -55.5t83 54t31 134zM195 406q80 0 137 -59.5t57 -142.5q0 -84 -57 -143.5t-137 -59.5t-137 59.5t-57 143.5q0 83 57 142.5t137 59.5zM89 427h-31l142 161l143 -161h-31l-112 75z" />
    <glyph glyph-name="otilde" unicode="&#xf5;" horiz-adv-x="411" 
d="M309 202q0 -80 -31 -134t-83 -54t-83.5 55.5t-31.5 136.5q0 80 31.5 132.5t83.5 52.5t83 -54t31 -135zM195 406q-80 0 -137 -59.5t-57 -142.5q0 -84 57 -143.5t137 -59.5t137 59.5t57 143.5q0 83 -57 142.5t-137 59.5zM84 442h-18v6q0 34 10 58.5t20 31.5l11 8q9 8 24 8
q5 0 16 -1t17 -1q8 -4 21 -14.5t21 -19.5l9 -9q16 -16 33 -16q37 4 37 49v3h17v-4q0 -32 -8 -55.5t-16 -31.5l-8 -7q-19 -17 -39 -17h-4q-14 0 -29 9t-23 17l-8 9q-24 28 -43 28q-17 0 -26.5 -11t-11.5 -20t-2 -17v-3z" />
    <glyph glyph-name="odieresis" unicode="&#xf6;" horiz-adv-x="411" 
d="M309 202q0 81 -31 135t-83 54t-83.5 -52.5t-31.5 -132.5q0 -81 31.5 -136.5t83.5 -55.5t83 54t31 134zM195 406q80 0 137 -59.5t57 -142.5q0 -84 -57 -143.5t-137 -59.5t-137 59.5t-57 143.5q0 83 57 142.5t137 59.5zM152 468q0 -16 -10.5 -27t-26.5 -11t-27 11t-11 27
t11 27t27 11t26.5 -11t10.5 -27zM317 468q0 -16 -11 -27t-26 -11q-16 0 -27 11t-11 27t11 27t27 11q15 0 26 -11t11 -27z" />
    <glyph glyph-name="divide" unicode="&#xf7;" horiz-adv-x="351" 
d="M216 178q0 -16 -12 -28t-28 -12t-28 12t-12 28t12 28t28 12t28 -12t12 -28zM216 405q0 -17 -12 -28.5t-28 -11.5t-28 11.5t-12 28.5t12 28.5t28 11.5t28 -11.5t12 -28.5zM302 298v-20h-251v20h251z" />
    <glyph glyph-name="ugrave" unicode="&#xf9;" horiz-adv-x="580" 
d="M319 400h235v-16h-5q-27 0 -49.5 -14t-26.5 -36v-266v-6q0 -7 2.5 -14t9 -15.5t22.5 -14t39 -5.5h8v-13h-154v92q-81 -79 -120 -85q-21 -6 -49 -6q-118 0 -142 131v194l-1 5q0 5 -3.5 13t-11 16t-24.5 14t-42 8v15h235v-15h-7.5t-17 -3t-22.5 -8t-19 -16t-12 -26v-195
l2 -10q3 -10 9 -24t16.5 -27.5t31 -23.5t46.5 -10h11q8 1 20.5 4t44 22t54.5 49v215q0 52 -80 55v16zM253 535l34 -104h-26l-86 104h78z" />
    <glyph glyph-name="uacute" unicode="&#xfa;" horiz-adv-x="580" 
d="M319 400h235v-16h-5q-27 0 -49.5 -14t-26.5 -36v-266v-6q0 -7 2.5 -14t9 -15.5t22.5 -14t39 -5.5h8v-13h-154v92q-81 -79 -120 -85q-21 -6 -49 -6q-118 0 -142 131v194l-1 5q0 5 -3.5 13t-11 16t-24.5 14t-42 8v15h235v-15h-7.5t-17 -3t-22.5 -8t-19 -16t-12 -26v-195
l2 -10q3 -10 9 -24t16.5 -27.5t31 -23.5t46.5 -10h11q8 1 20.5 4t44 22t54.5 49v215q0 52 -80 55v16zM261 454l35 104h77l-86 -104h-26z" />
    <glyph glyph-name="ucircumflex" unicode="&#xfb;" horiz-adv-x="580" 
d="M319 400h235v-16h-5q-27 0 -49.5 -14t-26.5 -36v-266v-6q0 -7 2.5 -14t9 -15.5t22.5 -14t39 -5.5h8v-13h-154v92q-81 -79 -120 -85q-21 -6 -49 -6q-118 0 -142 131v194l-1 5q0 5 -3.5 13t-11 16t-24.5 14t-42 8v15h235v-15h-7.5t-17 -3t-22.5 -8t-19 -16t-12 -26v-195
l2 -10q3 -10 9 -24t16.5 -27.5t31 -23.5t46.5 -10h11q8 1 20.5 4t44 22t54.5 49v215q0 52 -80 55v16zM176 430h-31l142 161l143 -161h-31l-112 75z" />
    <glyph glyph-name="udieresis" unicode="&#xfc;" horiz-adv-x="580" 
d="M319 400h235v-16h-5q-27 0 -49.5 -14t-26.5 -36v-266v-6q0 -7 2.5 -14t9 -15.5t22.5 -14t39 -5.5h8v-13h-154v92q-81 -79 -120 -85q-21 -6 -49 -6q-118 0 -142 131v194l-1 5q0 5 -3.5 13t-11 16t-24.5 14t-42 8v15h235v-15h-7.5t-17 -3t-22.5 -8t-19 -16t-12 -26v-195
l2 -10q3 -10 9 -24t16.5 -27.5t31 -23.5t46.5 -10h11q8 1 20.5 4t44 22t54.5 49v215q0 52 -80 55v16zM238 477q0 -16 -11 -27t-27 -11t-27.5 11t-11.5 27t11.5 27t27.5 11t27 -11t11 -27zM404 477q0 -16 -11 -27t-26 -11q-16 0 -27 11t-11 27t11 27t27 11q15 0 26 -11
t11 -27z" />
    <glyph glyph-name="dotlessi" unicode="&#x131;" horiz-adv-x="292" 
d="M177 400v-65v-264q0 -6 2 -12.5t8.5 -17.5t24.5 -18t45 -7v-16h-234v16q3 0 8 0.5t18 3.5t23.5 8t19 16.5t9.5 26.5q1 18 1 92l-1 170q0 2 -0.5 5.5t-4.5 12.5t-11.5 16t-23.5 12.5t-38 5.5v15h154z" />
    <glyph glyph-name="circumflex" unicode="&#x2c6;" horiz-adv-x="833" 
d="M260 512h-31l142 161l143 -161h-31l-112 75z" />
    <glyph glyph-name="tilde" unicode="&#x2dc;" horiz-adv-x="833" 
d="M237 526h-23v8q0 45 13.5 77.5t26.5 42.5l14 10q12 11 32 11q6 0 20.5 -1.5t22.5 -1.5q11 -5 28 -19t29 -26l11 -12q22 -21 44 -21q49 5 49 65v4h23v-6q0 -26 -4.5 -48.5t-10.5 -36t-12.5 -23t-11.5 -13.5l-4 -3q-24 -22 -52 -22h-5q-19 0 -39 11.5t-30 23.5l-11 11
q-32 37 -57 37q-22 0 -35 -14.5t-15.5 -26.5t-2.5 -23v-4z" />
    <glyph glyph-name="hungarumlaut" unicode="&#x2dd;" horiz-adv-x="224" 
d="M51 556h-35l34 59h-35l25 58h71zM147 556h-35l34 59h-35l25 58h71z" />
    <glyph glyph-name="endash" unicode="&#x2013;" horiz-adv-x="392" 
d="M348 300v-20h-319v20h319z" />
    <glyph glyph-name="emdash" unicode="&#x2014;" horiz-adv-x="536" 
d="M478 298v-20h-434v20h434z" />
    <glyph glyph-name="quoteleft" unicode="&#x2018;" horiz-adv-x="156" 
d="M91 675l8 -13q-4 0 -12 -6t-15 -12l-6 -7q-15 -16 -15 -32l4 -15q8 4 18 4q8 0 15 -3t10 -5l3 -3q13 -9 13 -24q0 -17 -14 -32.5t-34 -16.5q-43 0 -43 61v5q3 33 20 58t33 33z" />
    <glyph glyph-name="quoteright" unicode="&#x2019;" horiz-adv-x="161" 
d="M51 508l-8 13q4 0 12 6t15 13l6 6q15 15 15 31l-4 16q-8 -4 -18 -4q-8 0 -15 2.5t-10 5.5l-3 3q-13 9 -13 24q0 17 14 32.5t34 16.5q43 0 43 -61v-5q-3 -33 -20 -58t-33 -33z" />
    <glyph glyph-name="quotesinglbase" unicode="&#x201a;" horiz-adv-x="263" 
d="M87 -134l-12 21q6 0 19.5 10.5t23.5 20.5l10 10q24 25 24 50q0 7 -2 13.5t-4 9.5l-1 3q-13 -6 -29 -6q-12 0 -23 4t-16 8l-5 5q-21 12 -21 41q0 28 20.5 52t55.5 26q70 0 70 -99v-9q-3 -34 -15 -63t-27.5 -46t-31 -29.5t-25.5 -17.5z" />
    <glyph glyph-name="quotedblleft" unicode="&#x201c;" horiz-adv-x="289" 
d="M222 674l8 -13q-4 0 -12.5 -6t-15.5 -13l-6 -6q-15 -15 -15 -31l5 -16q8 4 17 4q8 0 15 -2.5t10 -5.5l3 -3q13 -9 13 -24q0 -17 -14 -32.5t-34 -16.5q-43 0 -43 61v5q3 33 20 58t33 33zM103 674l8 -13q-4 0 -12 -6t-15 -13l-6 -6q-15 -16 -15 -32l4 -15q8 4 18 4
q8 0 15 -2.5t10 -5.5l3 -3q13 -9 13 -24q0 -17 -14 -32.5t-34 -16.5q-43 0 -43 61v5q3 33 20 58t33 33z" />
    <glyph glyph-name="quotedblright" unicode="&#x201d;" horiz-adv-x="277" 
d="M48 510l-8 13q4 0 12.5 6t15.5 13l6 6q14 15 14 31l-4 16q-8 -4 -18 -4q-8 0 -14.5 2.5t-9.5 5.5l-3 3q-13 7 -13 24t14 33t32 16q44 0 44 -60v-6q-2 -33 -19 -58t-33 -33zM166 510l-7 13q4 0 12.5 6.5t14.5 12.5l6 6q15 15 15 31l-4 16q-8 -4 -18 -4q-8 0 -15 2.5
t-10 5.5l-3 3q-13 7 -13 24t14 33t32 16q45 0 45 -61v-5q-3 -33 -20 -58t-33 -33z" />
    <glyph glyph-name="quotedblbase" unicode="&#x201e;" horiz-adv-x="380" 
d="M60 -134l-12 21q6 0 19.5 10.5t24.5 20.5l10 10q24 25 24 51q0 7 -2 13.5t-4 9.5l-1 2q-13 -6 -29 -6q-12 0 -23.5 4t-16.5 8l-5 5q-20 12 -20 41q0 28 20 52t55 26q71 0 71 -100v-8q-3 -34 -15.5 -63t-28 -46t-31 -29.5t-26.5 -17.5zM240 -134l-12 21q6 0 19.5 10.5
t24.5 20.5l10 10q24 25 24 50q0 7 -2 13.5t-4 9.5l-2 3q-12 -6 -29 -6q-12 0 -23 4t-16 8l-5 5q-20 12 -20 41q0 28 20 52t55 26q70 0 70 -99v-9q-3 -34 -15 -63t-27.5 -46t-31 -29.5t-26.5 -17.5z" />
    <glyph glyph-name="bullet" unicode="&#x2022;" horiz-adv-x="183" 
d="M159 302q0 -27 -19.5 -46.5t-47.5 -19.5t-47.5 19.5t-19.5 46.5q0 28 19.5 47.5t47.5 19.5t47.5 -19.5t19.5 -47.5z" />
    <glyph glyph-name="notequal" unicode="&#x2260;" horiz-adv-x="431" 
d="M384 329h-162l-18 -94h180v-29h-185l-30 -156l-25 5l28 151h-154v29h160l18 94h-178v28h183l32 170l26 -5l-31 -165h156v-28z" />
  </font>
</defs>
</svg>
